<svg xmlns="http://www.w3.org/2000/svg" width="81.501" height="46.25" viewBox="0 0 81.501 46.25">
  <g id="cacao" transform="translate(-397.498 -800.867)">
    <g id="Groupe_16" data-name="Groupe 16" transform="translate(413.294 803.752)">
      <path id="Tracé_121" data-name="Tracé 121" d="M579.893,833.117c-1.65.659-2.007,1.924-2.379,1.972-2.3.293-2.868.71-4.11,2.389-1.375,1.86-.544,1.272-1.533,2.655-.645.9-.951,1.784-.111,2.552,2.175,8.192,18.963,16.934,20.211,15.744,2.5.808,3.666,1.3,12.265,2.706.044.007-.052.405.428.48,9.171,1.473,7.371-.082,11.249-.082a1.324,1.324,0,0,0,.83.083c.93-.11.911-.067,1.413-.166,2.243-.441,5.642-2.111,6.053-2.772a.764.764,0,0,0-.6-1.242c-.424,0-.362.288-.062-.338a1.675,1.675,0,0,0,.154-.633,2.51,2.51,0,0,0-.132-2.068c.654-.161,1.048-1.015.314-2.006-.868-1.165-1.764-1.127-1.7-2.1.116-.792-1.14-1.4-1.995-1.69-1.328-.453-.657.042-.555-.927a2.335,2.335,0,0,0-1.32-2.016.3.3,0,0,0-.243-.463c-.75-.131,0-.009-1.179-.49-.931-.378-.7-.044-.692-.453a1.335,1.335,0,0,0-.428-.854c-1.8-1.949-3.655-1.615-4.8-2.183a1.45,1.45,0,0,0,.228-1.054c-.116-.756-1.812-2.061-3.279-1.972-2.277.156-1.919.169-1.887-.115a1.6,1.6,0,0,0-1.511-1.664c-1.758-.242-3.023-.663-3.549-.663-1.125,0-.58.316-1.52-.157-4.316-2.22-4.612-.979-5.172-.979-1.365,0-1.009.586-1.774.464.648-.578-.053-1.787-2.014-1.787a6.806,6.806,0,0,0-2.108.422,1.322,1.322,0,0,0-.837-.808c-1.672-.645-2.419-.359-3.9.317C582.695,831.635,579.882,833.121,579.893,833.117Z" transform="translate(-571.248 -832.488)" fill="none"/>
    </g>
    <g id="Groupe_17" data-name="Groupe 17" transform="translate(397.498 800.867)">
      <path id="Tracé_122" data-name="Tracé 122" d="M603.634,813.306c-.126.643-1.2-1.161-1.44-1.194.049-.242-.47-.288-.492-.7.028-.03.1-.021.105-.07.041-.006.063.008.07.035a.47.47,0,0,1,.246.281c.168.118.42.322.386.527.2,0,.17.228.351.246A2.725,2.725,0,0,0,603.634,813.306Z" transform="translate(-583.127 -810.383)" fill-rule="evenodd"/>
      <path id="Tracé_123" data-name="Tracé 123" d="M800.27,818.549a36.116,36.116,0,0,1-2.914-2.95c-.255-.948,1.942,1.913,2.493,2.247C799.924,818.132,800.341,818.232,800.27,818.549Z" transform="translate(-760.907 -814.081)" fill-rule="evenodd"/>
      <path id="Tracé_124" data-name="Tracé 124" d="M589.677,819.078c-.026.08-.106.105-.176.141-.083-.071-1.652-1.395-1.65-1.791C588.277,817.3,588.879,818.694,589.677,819.078Z" transform="translate(-570.539 -815.909)" fill-rule="evenodd"/>
      <path id="Tracé_125" data-name="Tracé 125" d="M833.316,819.819c.248,0,.938.879,1.053,1.053.279.179,1.381,1.407,1.229,1.685-.175-.024-.233-.165-.281-.316-.825-.8-.987-1.264-1.264-1.3C833.9,820.479,833.264,820.373,833.316,819.819Z" transform="translate(-793.602 -818.089)" fill-rule="evenodd"/>
      <path id="Tracé_126" data-name="Tracé 126" d="M792.892,827.548c.006-.041.064-.03.105-.035.053.111.19.138.175.316.31.263.56.587.878.843.188,0,.343.18.281.316a1.52,1.52,0,0,1-.772-.351c-.08-.07-.118-.213-.211-.316C793.089,828.032,792.849,827.969,792.892,827.548Z" transform="translate(-756.865 -825.081)" fill-rule="evenodd"/>
      <path id="Tracé_127" data-name="Tracé 127" d="M862.126,831.362c.441.236.658.68,1.018,1.3a.177.177,0,0,0-.105.105.621.621,0,0,1-.386-.456C862.448,832.036,862.06,831.8,862.126,831.362Z" transform="translate(-819.779 -828.579)" fill-rule="evenodd"/>
      <path id="Tracé_128" data-name="Tracé 128" d="M532.2,833.286a22.267,22.267,0,0,1,2.142,2.423.228.228,0,0,1-.175.035c-.136-.016,0-.136-.105-.211a13.091,13.091,0,0,1-2-2.107C532.06,833.336,532.193,833.376,532.2,833.286Z" transform="translate(-519.836 -830.328)" fill-rule="evenodd"/>
      <path id="Tracé_129" data-name="Tracé 129" d="M548.49,833.847s1.79,1.821,1.791,1.826c-.345.212-.5-.269-.773-.351-.061-.135-1.266-1.457-1.3-1.545C548.187,833.471,548.615,833.727,548.49,833.847Z" transform="translate(-534.514 -830.642)" fill-rule="evenodd"/>
      <path id="Tracé_130" data-name="Tracé 130" d="M561.374,833.67c.221.286.421.632.667.913.123.141.434.242.351.492-.12-.02-.163-.117-.316-.105.006-.17-.133-.2-.246-.246C561.742,834.47,560.892,833.734,561.374,833.67Z" transform="translate(-546.345 -830.677)" fill-rule="evenodd"/>
      <path id="Tracé_131" data-name="Tracé 131" d="M731.27,841.159c.048.153-.136.075-.105.211-.348.062-.53.29-.878.351.013-.06-.027-.066-.07-.07-.009-.138.127-.13.105-.281C730.687,841.386,730.937,840.942,731.27,841.159Z" transform="translate(-699.913 -837.428)" fill-rule="evenodd"/>
      <path id="Tracé_132" data-name="Tracé 132" d="M772.686,846.981c.03.274-.267-.179-1.018.562a.654.654,0,0,1-.281-.035c-.013-.36.164-.194.948-.6C772.413,846.871,772.643,846.877,772.686,846.981Z" transform="translate(-737.327 -842.688)" fill-rule="evenodd"/>
      <path id="Tracé_133" data-name="Tracé 133" d="M783.5,847.918c-.127.247-.463.258-.7.351-.214.083-.385.266-.632.246-.006-.111.093-.117.07-.246C782.359,848.239,783.272,847.632,783.5,847.918Z" transform="translate(-747.122 -843.555)" fill-rule="evenodd"/>
      <path id="Tracé_134" data-name="Tracé 134" d="M658.874,853.357c-.205.2-.414.4-.632.6.047.2-.229.309-.351.281a.878.878,0,0,1-.035-.351c.392-.182.514-.633,1.018-.7C659.147,852.782,659.706,853.037,658.874,853.357Z" transform="translate(-634.153 -848.221)" fill-rule="evenodd"/>
      <path id="Tracé_135" data-name="Tracé 135" d="M936.131,854.018c.217-.082.72.994.843,1.194.2.322.5.625.456.983-.367-.165-.895-1.21-1.053-1.51C936.268,854.48,936,854.271,936.131,854.018Z" transform="translate(-887.007 -849.164)" fill-rule="evenodd"/>
      <path id="Tracé_136" data-name="Tracé 136" d="M821.491,857.589a3.176,3.176,0,0,1-1.124.316c-.154.079-.321.322-.492.175.044-.333.51-.282.843-.421C821.334,857.4,821.386,857.571,821.491,857.589Z" transform="translate(-781.391 -852.348)" fill-rule="evenodd"/>
      <path id="Tracé_137" data-name="Tracé 137" d="M725.99,860.19a.315.315,0,0,0,.246.07.566.566,0,0,1-.632.175c0-.4.339-.557.562-.737a4.71,4.71,0,0,1,1.65-1.018C728.222,858.947,727.234,858.84,725.99,860.19Z" transform="translate(-695.722 -853.404)" fill-rule="evenodd"/>
      <path id="Tracé_138" data-name="Tracé 138" d="M836.722,860.083c-.219.049-.441.167-.667.211-.1.019-.192-.031-.281,0-.183.063-.359.339-.562.141-.037-.154.119-.115.105-.246.229-.065.643-.078.913-.175C836.355,859.967,836.658,859.876,836.722,860.083Z" transform="translate(-795.323 -854.561)" fill-rule="evenodd"/>
      <path id="Tracé_139" data-name="Tracé 139" d="M845.872,862.955c-.218.213-.863-.03-1.088.246H844.5c.008-.237.336-.155.421-.316C845.311,862.866,845.625,862.769,845.872,862.955Z" transform="translate(-803.771 -857.187)" fill-rule="evenodd"/>
      <path id="Tracé_140" data-name="Tracé 140" d="M973.788,868.3a1.917,1.917,0,0,1,.667,1.3c-.239.017-.191-.254-.386-.281C974.071,868.9,973.509,868.667,973.788,868.3Z" transform="translate(-921.187 -862.147)" fill-rule="evenodd"/>
      <path id="Tracé_141" data-name="Tracé 141" d="M676.809,870.945c-.024.327-.337.365-.491.562-.009.131-.122.159-.211.211a.442.442,0,0,1-.141-.246C676.2,871.272,676.437,870.893,676.809,870.945Z" transform="translate(-650.614 -864.546)" fill-rule="evenodd"/>
      <path id="Tracé_142" data-name="Tracé 142" d="M796.844,871.216c-.542.172-1.005.422-1.51.632-.371.591-1.176-.028,1.4-.878C796.871,870.947,796.844,871.092,796.844,871.216Z" transform="translate(-758.711 -864.57)" fill-rule="evenodd"/>
      <path id="Tracé_143" data-name="Tracé 143" d="M894.99,873.025c-.819-.025-2.29-.174-2.282.281-.973-.142.409-.69,1.018-.492C894.071,872.744,894.77,872.7,894.99,873.025Z" transform="translate(-847.27 -866.204)" fill-rule="evenodd"/>
      <path id="Tracé_144" data-name="Tracé 144" d="M689.472,874.2c.009.325-.389.243-.457.492-.247-.05-.351.348-.351-.176C688.9,874.39,689.107,874.081,689.472,874.2Z" transform="translate(-662.153 -867.483)" fill-rule="evenodd"/>
      <path id="Tracé_145" data-name="Tracé 145" d="M911.289,879.229c-.111.193-.913-.016-1.58.105-.232.042-.422.24-.6.07-.034-.218.186-.219.351-.246.878-.143.47-.023.808,0S911.047,879,911.289,879.229Z" transform="translate(-862.481 -871.951)" fill-rule="evenodd"/>
      <path id="Tracé_146" data-name="Tracé 146" d="M860.239,879.987c-.082.184-1.585.46-2.107,1.089C857.19,881.123,859.6,879.766,860.239,879.987Z" transform="translate(-815.961 -872.745)" fill-rule="evenodd"/>
      <path id="Tracé_147" data-name="Tracé 147" d="M745.127,882.02c-.046.245-.344.228-.527.316-.167.081-.318.266-.527.246A.84.84,0,0,1,745.127,882.02Z" transform="translate(-712.506 -874.568)" fill-rule="evenodd"/>
      <path id="Tracé_148" data-name="Tracé 148" d="M865.383,885.709c0,.006-2.423,1.018-2.423,1.018-.018-.158.161-.12.14-.281C863.538,886.3,865.065,885.389,865.383,885.709Z" transform="translate(-820.543 -877.905)" fill-rule="evenodd"/>
      <path id="Tracé_149" data-name="Tracé 149" d="M618.7,891.183c-.019-.063-.018-.146-.07-.176a.27.27,0,0,1,.211-.211c.344-.772.939-1.46,1.369-2.247.063,0,.074-.043.141-.035.014-.171,2.137-2.908,2.563-2.282-.037.219-.226.174-.351.246a13.472,13.472,0,0,0-3.582,4.74C618.852,891.245,618.816,891.175,618.7,891.183Z" transform="translate(-598.512 -878.358)" fill-rule="evenodd"/>
      <path id="Tracé_150" data-name="Tracé 150" d="M923.428,886.189c-.041.171-.22.091-.351.105a3.528,3.528,0,0,1-.492.035c-.374,0-.776.246-1.123.07A2.31,2.31,0,0,1,923.428,886.189Z" transform="translate(-873.707 -878.28)" fill-rule="evenodd"/>
      <path id="Tracé_151" data-name="Tracé 151" d="M871.745,891.931c-1.745.443-1.841.794-1.58.772-.078.226-.511.1-.738.176-.04-.146.074-.137.07-.246C869.581,892.591,871.534,891.394,871.745,891.931Z" transform="translate(-826.413 -883.495)" fill-rule="evenodd"/>
      <path id="Tracé_152" data-name="Tracé 152" d="M524.5,894.082c.236,0,.165.415.351.7.09.139.267.189.316.386-.078.074-.169-.037-.316,0C524.675,894.82,524.291,894.552,524.5,894.082Z" transform="translate(-512.916 -885.576)" fill-rule="evenodd"/>
      <path id="Tracé_153" data-name="Tracé 153" d="M822.789,894.66c-.128.212-.289.415-.632.316C822.112,894.685,822.594,894.412,822.789,894.66Z" transform="translate(-783.461 -886.013)" fill-rule="evenodd"/>
      <path id="Tracé_154" data-name="Tracé 154" d="M801.613,895.678c.038.155-.06.174-.07.281-.43-.032-.612.184-.878.316-.046.489-1.036.288.035-.351C800.979,895.757,801.365,895.567,801.613,895.678Z" transform="translate(-763.515 -886.996)" fill-rule="evenodd"/>
      <path id="Tracé_155" data-name="Tracé 155" d="M836.51,895.751c.026.276-.531.479-.492.07C836.142,895.836,836.322,895.662,836.51,895.751Z" transform="translate(-796.059 -887.069)" fill-rule="evenodd"/>
      <path id="Tracé_156" data-name="Tracé 156" d="M967.206,900.273a5.012,5.012,0,0,0-1.931,0c-.044-.184.2-.08.175-.246C965.46,900.026,967.128,899.687,967.206,900.273Z" transform="translate(-913.517 -890.889)" fill-rule="evenodd"/>
      <path id="Tracé_157" data-name="Tracé 157" d="M679.758,905.086c-.043.186-2.877,2.206-3.511,5.021-.086.031-.129.105-.281.07a1.006,1.006,0,0,1,.176-.527c-.025-.314.209-.523.316-.772a12.415,12.415,0,0,1,2.247-3.2C679.142,905.592,679.226,904.966,679.758,905.086Z" transform="translate(-650.614 -895.562)" fill-rule="evenodd"/>
      <path id="Tracé_158" data-name="Tracé 158" d="M986.624,906.868c-.187.178-.513,0-.808,0-.712.007-.315.1-.456.175-.245,0-.308.056-.246-.281A1.808,1.808,0,0,1,986.624,906.868Z" transform="translate(-931.531 -896.992)" fill-rule="evenodd"/>
      <path id="Tracé_159" data-name="Tracé 159" d="M1027.459,908.748c-.381-.012-1.126-1.435-1.721-2.142,0-.107.074-.137.105-.211.518.316,1.071,1.854,1.58,2.037C1027.32,908.569,1027.563,908.622,1027.459,908.748Z" transform="translate(-968.468 -896.765)" fill-rule="evenodd"/>
      <path id="Tracé_160" data-name="Tracé 160" d="M919.3,910.243c0,.05-.006.1.035.105-.005.054-1.53.514-1.58.527-.073.091.078.13,0,.246C916.31,911.29,918.171,910.3,919.3,910.243Z" transform="translate(-869.858 -900.262)" fill-rule="evenodd"/>
      <path id="Tracé_161" data-name="Tracé 161" d="M868.227,914.542c-.327.4-.957.494-1.334.843-.026.108.121.043.07.176a.27.27,0,0,1-.316.035c.021-.163-.048-.212,0-.316.067-.015.064-.1.176-.07.257-.4.874-.437,1.229-.737C868.138,914.466,868.16,914.527,868.227,914.542Z" transform="translate(-823.878 -904.104)" fill-rule="evenodd"/>
      <path id="Tracé_162" data-name="Tracé 162" d="M995.937,915.106a2.418,2.418,0,0,1-.983,0c.135-.293.481-.161.808-.246C995.8,914.958,995.959,914.944,995.937,915.106Z" transform="translate(-940.493 -904.458)" fill-rule="evenodd"/>
      <path id="Tracé_163" data-name="Tracé 163" d="M883.055,918.681c-.05.358-.581.307-.526.667-.126-.046-.129,0-.246-.035.01-.08-.008-.132-.07-.14A.914.914,0,0,1,883.055,918.681Z" transform="translate(-838.039 -907.927)" fill-rule="evenodd"/>
      <path id="Tracé_164" data-name="Tracé 164" d="M1081.477,927.721c-.161-.052-3.466-5.8-3.792-6.075.18-.425-.04-.825,3.652,5.653C1081.431,927.406,1081.636,927.564,1081.477,927.721Z" transform="translate(-1015.674 -910.436)" fill-rule="evenodd"/>
      <path id="Tracé_165" data-name="Tracé 165" d="M537.828,931.79h.105c.469,1.269.536,1.042.772,1.159.053.205-.1.2-.176.281-.418-.155-.457-.69-.7-1.018C537.845,931.972,537.907,931.951,537.828,931.79Z" transform="translate(-525.081 -919.843)" fill-rule="evenodd"/>
      <path id="Tracé_166" data-name="Tracé 166" d="M982.25,936.983c-.672.288-1.6.324-2.037.843-.111-.036-.2.008-.281-.105-.053-.356,1.216-.613,1.3-.632a3.9,3.9,0,0,1,1.334-.351C983.128,936.669,982.616,937.258,982.25,936.983Z" transform="translate(-926.841 -924.334)" fill-rule="evenodd"/>
      <path id="Tracé_167" data-name="Tracé 167" d="M832.328,937.282a8.3,8.3,0,0,0-1.615,1.615c-.174-.455.4-.734.562-1.089.5-.243.563-.529.843-.527.012-.046.062-.055.07-.105h.105C832.283,937.234,832.327,937.237,832.328,937.282Z" transform="translate(-791.21 -924.738)" fill-rule="evenodd"/>
      <path id="Tracé_168" data-name="Tracé 168" d="M733.583,938.781c-.015.264-.3.369-.457.562s-.247.662-.6.562a5.1,5.1,0,0,1,.632-.983C733.581,938.9,733.522,938.568,733.583,938.781Z" transform="translate(-702.016 -926.131)" fill-rule="evenodd"/>
      <path id="Tracé_169" data-name="Tracé 169" d="M1028.953,941.019c-.2.231-.668.121-.913.07C1028.013,940.574,1028.781,940.834,1028.953,941.019Z" transform="translate(-970.558 -928.019)" fill-rule="evenodd"/>
      <path id="Tracé_170" data-name="Tracé 170" d="M527.8,944.481c.259-.036,1.008,1.255,1.089,1.369.1.139.316.228.281.421-.3.109-.41-.359-.562-.562-.261-.347-.578-.669-.843-1.018C527.736,944.585,527.8,944.564,527.8,944.481Z" transform="translate(-515.928 -931.375)" fill-rule="evenodd"/>
      <path id="Tracé_171" data-name="Tracé 171" d="M1039.206,947.843a.925.925,0,0,0,.105-.281C1040.578,947.544,1039.97,947.99,1039.206,947.843Z" transform="translate(-980.707 -934.175)" fill-rule="evenodd"/>
      <path id="Tracé_172" data-name="Tracé 172" d="M958.786,952.185c.185.081.436-.069.562.105-.027.1-.17.088-.246.14a.275.275,0,0,1-.316.176C958.652,952.467,958.72,952.365,958.786,952.185Z" transform="translate(-907.555 -938.377)" fill-rule="evenodd"/>
      <path id="Tracé_173" data-name="Tracé 173" d="M967.635,958.725" transform="translate(-915.667 -944.32)" fill-rule="evenodd"/>
      <path id="Tracé_174" data-name="Tracé 174" d="M719.067,961.824c-1.07,2.881-.8,2.354-1.159,2.212.683-1.555.606-2.04,1.053-2.247C719.018,961.779,719.022,961.822,719.067,961.824Z" transform="translate(-688.728 -947.103)" fill-rule="evenodd"/>
      <path id="Tracé_175" data-name="Tracé 175" d="M881.873,964.515c-.049.218-.255.325-.421.457-.2.162-.349.394-.6.492-.046.258-.223.386-.351.562-.267-.182.115-.446.14-.667h.106c.172-.39.588-.536.808-.878C881.667,964.487,881.815,964.456,881.873,964.515Z" transform="translate(-836.401 -949.548)" fill-rule="evenodd"/>
      <path id="Tracé_176" data-name="Tracé 176" d="M756.8,980.011c.084.254-.2.384-.316.562a10.965,10.965,0,0,1-.562,1.124c-.023.246-.043.5-.246.562-.006-.041-.064-.029-.105-.035a2.106,2.106,0,0,1,.281-.983c.029-.048.115-.056.14-.105.1-.2.144-.41.246-.6a1.871,1.871,0,0,0,.281-.527C756.673,980.011,756.672,979.952,756.8,980.011Z" transform="translate(-722.946 -963.639)" fill-rule="evenodd"/>
      <path id="Tracé_177" data-name="Tracé 177" d="M513.851,982.967c.31.139-.087.1,1.369,2.072.091.093-.057.028-.035.141a6.972,6.972,0,0,0,.6.878,2.178,2.178,0,0,0,.491.667c.222.774,1.188,1.321,1.053,1.58-.187.093-.291-.168-.491-.175v-.141c-.875-.974-1.47-2.228-2.353-3.2.006-.1.064-.146.07-.246C514.268,984.194,513.4,982.967,513.851,982.967Z" transform="translate(-503.176 -966.35)" fill-rule="evenodd"/>
      <path id="Tracé_178" data-name="Tracé 178" d="M1000.969,984.891c-.063.113-.175.05-.281.07-.2.039-1.214.454-1.159.7-.07,0-.167-.038-.211.211a.229.229,0,0,0-.176-.035c-.176-.348.189-.428,1.053-.913C1000.39,984.818,1000.872,984.492,1000.969,984.891Z" transform="translate(-944.26 -967.923)" fill-rule="evenodd"/>
      <path id="Tracé_179" data-name="Tracé 179" d="M1019.523,988.731c.017.286-.322.217-.351.456-.051.019-.182-.041-.176.035-.127-.065-.105-.245-.07-.386A2.178,2.178,0,0,1,1019.523,988.731Z" transform="translate(-962.252 -971.586)" fill-rule="evenodd"/>
      <path id="Tracé_180" data-name="Tracé 180" d="M883.232,989.861c.012.472-.328.241-1.159,1.58-.122.028-.135-.052-.246-.035.03-.052.053-.112.14-.106.147-.5.555-.732.773-1.159C882.963,990.107,882.938,989.825,883.232,989.861Z" transform="translate(-837.689 -972.612)" fill-rule="evenodd"/>
      <path id="Tracé_181" data-name="Tracé 181" d="M1026.894,993.23a.263.263,0,0,1-.386-.246C1026.663,992.738,1026.922,992.919,1026.894,993.23Z" transform="translate(-969.167 -975.348)" fill-rule="evenodd"/>
      <path id="Tracé_182" data-name="Tracé 182" d="M922.32,997.588a9.747,9.747,0,0,1-.737.667,4.838,4.838,0,0,1-.667.7.505.505,0,0,1-.246.316c-.105.326-.419.529-.6.808a10.84,10.84,0,0,1-.948,1.475c-.08.2-.111.45-.386.456a10.078,10.078,0,0,1,1.791-2.809c-.023-.128.076-.135.07-.246C921.187,998.536,921.431,997.591,922.32,997.588Z" transform="translate(-871.23 -979.636)" fill-rule="evenodd"/>
      <path id="Tracé_183" data-name="Tracé 183" d="M1034.141,999.074c.037.131-.087.1-.07.211-.135-.064-.308-.09-.281-.316C1033.987,998.952,1034.075,998.915,1034.141,999.074Z" transform="translate(-975.783 -980.876)" fill-rule="evenodd"/>
      <path id="Tracé_184" data-name="Tracé 184" d="M1138,1008.171c-.283-.015-.272-.258-.421-.527a7.3,7.3,0,0,1-.632-1.018,1.952,1.952,0,0,1-.386-.562c.31-.138.045-.554,1.51,1.9C1138.036,1008.023,1137.969,1008.05,1138,1008.171Z" transform="translate(-1069.174 -987.235)" fill-rule="evenodd"/>
      <path id="Tracé_185" data-name="Tracé 185" d="M847.189,1013.738c.151-.021.01.206.07.21-.432.393-.521,1.09-.807,1.545,0,.063.043.074.035.14-.151.108-.231.455-.457.281-.01-.146.046-.137,0-.246.27-.315.308-.862.6-1.159-.024-.258.169-.3.211-.492C847.02,1013.99,847.084,1013.843,847.189,1013.738Z" transform="translate(-805.158 -994.311)" fill-rule="evenodd"/>
      <path id="Tracé_186" data-name="Tracé 186" d="M531.678,1020.292c.475.193-.346.072,2.493,3.9.107.141.147-.177.211-.07.087.024,2.773,3.044,3.757,3.968.188.177.471.252.6.492a.377.377,0,0,1,.351.351c-.406.218-.523-.3-.843-.386-1.124-1.24-2.4-2.33-3.476-3.617h-.246c.007-.215-.369-.2-.246-.422-.43-.046-2.232-3.074-2.458-3.546C531.713,1020.738,531.482,1020.517,531.678,1020.292Z" transform="translate(-519.423 -1000.269)" fill-rule="evenodd"/>
      <path id="Tracé_187" data-name="Tracé 187" d="M709.9,1024.375a4.817,4.817,0,0,1-.6.527,9.541,9.541,0,0,0-1.721,2.318l-.386,1.334c-.841.461.561-2.456.983-2.6-.025-.107.036-.128.035-.21a9.9,9.9,0,0,1,1.124-1.054A.425.425,0,0,1,709.9,1024.375Z" transform="translate(-678.758 -1003.966)" fill-rule="evenodd"/>
      <path id="Tracé_188" data-name="Tracé 188" d="M595.567,1034.528c.457.055.162.472.737.983-.047.134-.251.044-.351-.105-.018-.026-.011-.112-.035-.141-.11-.128-.352-.306-.386-.526C595.52,1034.664,595.585,1034.588,595.567,1034.528Z" transform="translate(-577.518 -1013.205)" fill-rule="evenodd"/>
      <path id="Tracé_189" data-name="Tracé 189" d="M1111.058,1035.434c-.231.085-.428.2-.667.281C1110.042,1035.331,1110.986,1034.971,1111.058,1035.434Z" transform="translate(-1045.326 -1013.831)" fill-rule="evenodd"/>
      <path id="Tracé_190" data-name="Tracé 190" d="M871.877,1036.806a7.1,7.1,0,0,1-.632,1.229,2.257,2.257,0,0,1-.421,1.018c-.3-.1-.036-.391.035-.562.023-.055-.019-.1,0-.14C871.64,1036.607,871.57,1036.817,871.877,1036.806Z" transform="translate(-827.564 -1015.273)" fill-rule="evenodd"/>
      <path id="Tracé_191" data-name="Tracé 191" d="M901.578,1042.224a18.163,18.163,0,0,1-.772,1.721C900.582,1043.842,900.963,1042.292,901.578,1042.224Z" transform="translate(-854.877 -1020.199)" fill-rule="evenodd"/>
      <path id="Tracé_192" data-name="Tracé 192" d="M739.531,1049.743a12.2,12.2,0,0,0-1.3,2.212c-.072.01-.069.095-.14.105-.058.387-.248.641-.316,1.018a.571.571,0,0,1,.035.386c-.168-.039-.148.109-.316.07-.176-.517.248-.974.316-1.475.081-.024.094-.117.176-.14a6.812,6.812,0,0,1,.772-1.58c.067-.015.088-.076.176-.07C739,1049.981,739.192,1049.644,739.531,1049.743Z" transform="translate(-706.489 -1027.016)" fill-rule="evenodd"/>
      <path id="Tracé_193" data-name="Tracé 193" d="M908.63,1050.911c-.017.238-.3,1.118-.6,1.124-.138-.275.172-.562.281-.808C908.281,1051.015,908.426,1050.838,908.63,1050.911Z" transform="translate(-861.472 -1028.078)" fill-rule="evenodd"/>
      <path id="Tracé_194" data-name="Tracé 194" d="M1173.565,1054.152a4.823,4.823,0,0,1,1.194,1.264,7.593,7.593,0,0,1,1.229,1.615c.11.153.332.282.246.491-.377.125-.187-.284-.527-.316-.013-.472.015-.093-1.018-1.615a7.051,7.051,0,0,1-1.194-1.264C1173.531,1054.281,1173.53,1054.2,1173.565,1054.152Z" transform="translate(-1102.741 -1031.039)" fill-rule="evenodd"/>
      <path id="Tracé_195" data-name="Tracé 195" d="M754.8,1055.692c.215.066-.8,1.573-1.159,2.6-.22.1-.17.462-.386.562,0,.206-.062.359-.246.386-.222-.29.82-1.978,1.229-2.809C754.37,1056.152,754.462,1055.773,754.8,1055.692Z" transform="translate(-720.594 -1032.438)" fill-rule="evenodd"/>
      <path id="Tracé_196" data-name="Tracé 196" d="M1184.4,1056.845a7.009,7.009,0,0,0,1.053,1.124,3.527,3.527,0,0,1,.421.562c.136.183.37.374.316.632-.4-.077-.487-.472-.7-.737C1185.147,1058.125,1183.946,1057.007,1184.4,1056.845Z" transform="translate(-1112.561 -1033.486)" fill-rule="evenodd"/>
      <path id="Tracé_197" data-name="Tracé 197" d="M1166.409,1064.986c-.3.183.048,0-2.282-2.634a5.06,5.06,0,0,1-.667-.492C1163.345,1060.79,1166.441,1064.524,1166.409,1064.986Z" transform="translate(-1093.618 -1037.869)" fill-rule="evenodd"/>
      <path id="Tracé_198" data-name="Tracé 198" d="M1041.114,1063.667c0,.379-.229-.157-2.212,2-.315.342-.572.739-.913,1.053-.164.246-.1.719-.492.737-.194-.652,1.331-2.026,1.615-2.318.453-.466-.07-.213,1.159-1.053.2-.136.279-.3.6-.316C1040.944,1063.731,1040.952,1063.623,1041.114,1063.667Z" transform="translate(-979.138 -1039.676)" fill-rule="evenodd"/>
      <path id="Tracé_199" data-name="Tracé 199" d="M571.708,1064.158a.829.829,0,0,1,.562.456,1.433,1.433,0,0,1,.562.562,8.205,8.205,0,0,1,1.264,1.44c.116.095.336.085.281.351-.435.244-1.685-1.99-2.7-2.528C571.678,1064.338,571.654,1064.209,571.708,1064.158Z" transform="translate(-555.837 -1040.132)" fill-rule="evenodd"/>
      <path id="Tracé_200" data-name="Tracé 200" d="M957.95,1064.368c-.272.512-.623.945-.878,1.475-.164-.031-.076-.1-.211-.14C957.874,1063.932,957.807,1064.262,957.95,1064.368Z" transform="translate(-905.876 -1040.236)" fill-rule="evenodd"/>
      <path id="Tracé_201" data-name="Tracé 201" d="M556.061,1066.082c.406,0-.354.2,2.423,3.16a48.7,48.7,0,0,0,5.3,4.46c1.048.638.253,1.126-5.021-3.828a15.264,15.264,0,0,1-2.528-3.02c-.031-.249-.212-.35-.211-.632C555.955,1066.151,556.041,1066.154,556.061,1066.082Z" transform="translate(-541.593 -1041.88)" fill-rule="evenodd"/>
      <path id="Tracé_202" data-name="Tracé 202" d="M1048.523,1069.068c-.13.326-.516.4-.632.737-.255.026-.264.3-.492.351-.106.306-.262.278-.843,1.018-.033.041-.041.1-.07.14-.106.131-.28.221-.386.351-.188.23-.291.542-.562.7-.211-.272,1.222-1.944,2.388-2.985C1048.086,1069.241,1048.219,1068.893,1048.523,1069.068Z" transform="translate(-986.442 -1044.55)" fill-rule="evenodd"/>
      <path id="Tracé_203" data-name="Tracé 203" d="M809.213,1079.234a10.146,10.146,0,0,0-1.4,3.476c-.093,0-.2.013-.246-.035a2.487,2.487,0,0,1,.422-1.44c.022-.08-.024-.143,0-.211.225-.646.669-1.2.948-1.826.051.039.086.038.105-.035C809.084,1079.2,809.167,1079.2,809.213,1079.234Z" transform="translate(-770.202 -1053.768)" fill-rule="evenodd"/>
      <path id="Tracé_204" data-name="Tracé 204" d="M1014.655,1079.934c.086.3-.227.464-.386.632-.125.285-.372.447-.527.7-.009.126.105.129.105.246-.7.451-.523-.392,0-.738C1013.993,1080.51,1014.351,1079.934,1014.655,1079.934Z" transform="translate(-957.244 -1054.468)" fill-rule="evenodd"/>
      <path id="Tracé_205" data-name="Tracé 205" d="M547.518,1087.2a26.95,26.95,0,0,0,1.966,2.388c.107.026.1-.061.211-.035-.016.075.05.067.105.07,1.291,1.433,2.749,2.213,2.809,2.634-.336.042-.291-.439-.562-.351-.02-.073-.087-.1-.07-.211-.182.109-.231-.18-.421-.176a.646.646,0,0,1-.14-.246c-.442-.067-.429-.446-.632-.386-.107-.268-.468-.281-.562-.562a2.406,2.406,0,0,1-.6-.457c-.643,0-2.22-2.464-2.563-2.985C547.135,1086.881,547.053,1086.391,547.518,1087.2Z" transform="translate(-533.473 -1060.648)" fill-rule="evenodd"/>
      <path id="Tracé_206" data-name="Tracé 206" d="M659.3,1093.128c-.244-.139-.292-.447-.421-.667-1.705-2.9-1.42-2.308-1.334-2.528.273-.038,1.17,2.13,1.65,2.739C659.182,1092.877,659.292,1092.954,659.3,1093.128Z" transform="translate(-633.812 -1063.554)" fill-rule="evenodd"/>
      <path id="Tracé_207" data-name="Tracé 207" d="M1097.35,1101.7a6.492,6.492,0,0,0-1.264,1.755.758.758,0,0,1-.316-.035,4.513,4.513,0,0,1,.351-.737c.053-.072.156-.1.211-.176C1096.361,1102.47,1096.782,1101.552,1097.35,1101.7Z" transform="translate(-1032.109 -1074.234)" fill-rule="evenodd"/>
      <path id="Tracé_208" data-name="Tracé 208" d="M559.007,1110.861c-.405.108-4.653-4.074-4.635-4.705.028-.03.1-.021.105-.07.057-.01.06.033.105.035C556.742,1109.277,559.112,1110.438,559.007,1110.861Z" transform="translate(-540.116 -1078.231)" fill-rule="evenodd"/>
      <path id="Tracé_209" data-name="Tracé 209" d="M1191.23,1118.027a7.269,7.269,0,0,1,2.423,2.458c-.514-.244-.853-1-2.458-2.247A.3.3,0,0,0,1191.23,1118.027Z" transform="translate(-1118.826 -1089.085)" fill-rule="evenodd"/>
      <path id="Tracé_210" data-name="Tracé 210" d="M694.837,1121.1a.165.165,0,0,0,.106.035c.285.733.753,1.283,1.088,1.966-.216.035-.556-.513-.667-.7C694.76,1121.375,694.667,1121.372,694.837,1121.1Z" transform="translate(-667.694 -1091.882)" fill-rule="evenodd"/>
      <path id="Tracé_211" data-name="Tracé 211" d="M1211.2,1123.024c.175-.025.572.624.632.7a6.674,6.674,0,0,1,.913,1.124c-.351-.152-.472-.535-.808-.7C1211.781,1123.689,1211.31,1123.539,1211.2,1123.024Z" transform="translate(-1137.01 -1093.625)" fill-rule="evenodd"/>
      <path id="Tracé_212" data-name="Tracé 212" d="M593.64,1141.114a23.323,23.323,0,0,1,2.282,1.966.686.686,0,0,1,.421.316c.989.492.424.456.843.456-.025.108.06.1.035.211-.135.143-.411-.04-.492-.211-.555-.1-.735-.576-1.194-.772-.08-.283-1.056-.853-1.931-1.791C593.591,1141.206,593.669,1141.214,593.64,1141.114Z" transform="translate(-575.767 -1110.065)" fill-rule="evenodd"/>
      <path id="Tracé_213" data-name="Tracé 213" d="M824.712,1161.278a1.03,1.03,0,0,1-.632-.632,6.718,6.718,0,0,1-.843-1.229c-.235-.233-.541-.4-.667-.737C822.962,1158.263,824.108,1160.443,824.712,1161.278Z" transform="translate(-783.839 -1125.98)" fill-rule="evenodd"/>
      <path id="Tracé_214" data-name="Tracé 214" d="M663.911,1166.973c.017.989-12.524-5.952-12.571-6.672C651.6,1160.132,656.779,1164.088,663.911,1166.973Z" transform="translate(-628.235 -1127.497)" fill-rule="evenodd"/>
      <path id="Tracé_215" data-name="Tracé 215" d="M1247.408,1159.968c1.11.411,1.748,1.685,1.58,1.791-.065.034-.117-.105-.141,0-.134-.119-.068-.231-.175-.386a3.58,3.58,0,0,0-1.37-1.159C1247.267,1160.061,1247.375,1160.052,1247.408,1159.968Z" transform="translate(-1169.807 -1127.198)" fill-rule="evenodd"/>
      <path id="Tracé_216" data-name="Tracé 216" d="M666.53,1161.608c-.087-.052-.344-.047-.281-.246-.01-.071.1-.123.105-.071.21-.01,4.063,2.274,4.073,2.282C671.409,1163.722,673.257,1165.6,666.53,1161.608Z" transform="translate(-641.775 -1128.382)" fill-rule="evenodd"/>
      <path id="Tracé_217" data-name="Tracé 217" d="M612.842,1163.432c-.017.111.108.079.07.211,1.055,1.111,1.1.8,1.089,1.054.334.019.515.506,1.44.913.018.052.052.088.07.14.795.424,1.452,1.087,1.685,1.053.149-.1-.149-.137-.035-.211.856.823,6.535,3.261,6.215,3.827a34.155,34.155,0,0,0-3.652-2c0-.1-.15-.061-.141-.176-1.053-.374-1.611-1.145-1.615-.562C617.486,1167.3,611.2,1163.432,612.842,1163.432Z" transform="translate(-593.002 -1130.346)" fill-rule="evenodd"/>
      <path id="Tracé_218" data-name="Tracé 218" d="M639.383,1176.131a38.373,38.373,0,0,0,4.249,2.388,2.9,2.9,0,0,0,.808.527c.7.681-3.933-1.981-4.108-2.036-.011-.083-.122-.065-.105-.176C640.093,1176.84,639.328,1176.459,639.383,1176.131Z" transform="translate(-617.367 -1141.887)" fill-rule="evenodd"/>
      <path id="Tracé_219" data-name="Tracé 219" d="M1129.3,1195.288c-.046.232-.161.08-.316.105-1.561.254-3.771,1.2-3.968.667.107-.137.548-.143.772-.141.129-.138.334-.1.526-.14C1128.24,1195.415,1128.85,1195.026,1129.3,1195.288Z" transform="translate(-1058.685 -1159.218)" fill-rule="evenodd"/>
      <path id="Tracé_220" data-name="Tracé 220" d="M731.076,1197.679c.268.051.656.4,1.053.527.225.07.415.031.6.14.066.067,0,.088,0,.176a26.5,26.5,0,0,0,5.548,2.317c.02.073.1.114.035.176,1.2.035,1.958.385,3.02.492.164-.031-.048.091.07.105,1.188.152,2.3.341,3.406.527.123.021.336-.075.386.105.1.347-2.729-.244-2.739-.246-.41-.08-.788-.024-1.194-.14a1.218,1.218,0,0,0-.527-.105c-.152,0-.139-.166-.246-.211a5.893,5.893,0,0,1-1.9-.316,4.765,4.765,0,0,1-1.088-.035c0-.063.043-.074.035-.14-.022-.139.193-.042.281-.07-.069-.083-.233-.072-.386-.07a18.292,18.292,0,0,1-2.809-1.159c-.393-.039-.533-.332-.913-.386-.18-.242-.576-.266-.737-.527h-.246c-.011-.083-.122-.065-.105-.176a7.275,7.275,0,0,1-1.51-.632C731.1,1197.91,730.994,1197.779,731.076,1197.679Z" transform="translate(-700.667 -1161.468)" fill-rule="evenodd"/>
      <path id="Tracé_221" data-name="Tracé 221" d="M710.426,1215.25c-.307.3-4.311-2.563-4.811-2.668.006-.118-.123-.281.07-.281.289.056.868.418.843.492C708.761,1214.288,710.126,1214.905,710.426,1215.25Z" transform="translate(-677.524 -1174.755)" fill-rule="evenodd"/>
      <path id="Tracé_222" data-name="Tracé 222" d="M1132.409,1213.424a.419.419,0,0,1-.386.211c-.292.387-.924.434-1.264.773-.335-.018.166-.061-1.651.913a.38.38,0,0,0-.211.176c-.235.024-.6.244-.808.07a.807.807,0,0,1,.562-.281,11.9,11.9,0,0,1,2.423-1.3A2.183,2.183,0,0,1,1132.409,1213.424Z" transform="translate(-1061.479 -1175.774)" fill-rule="evenodd"/>
      <path id="Tracé_223" data-name="Tracé 223" d="M881.917,1215.441c-.1.344-.521-.036-1.334-.14a4.675,4.675,0,0,1-.527-.105c-.333-.078-.7-.046-1.088-.105-.118-.018-.273-.1-.386-.105s-.253.057-.351-.07c-.126.069-.187-.016-.351,0-.4-.5-.185-.4-.175-.351.611.214,1.347.181,2.107.351.043.01.072.07.07.07.079.01.166-.049.246-.035.138.024.278.111.421.14.174.036.361,0,.527.035.093.021.157.09.246.105C881.567,1215.271,881.818,1215.216,881.917,1215.441Z" transform="translate(-833.881 -1176.772)" fill-rule="evenodd"/>
      <path id="Tracé_224" data-name="Tracé 224" d="M859.791,1216.455c-.01.007-6.906-1.387-7.233-1.369-.058-.654.806-.06,1.615.105C854.867,1215.332,859.82,1215.889,859.791,1216.455Z" transform="translate(-811.088 -1177.014)" fill-rule="evenodd"/>
      <path id="Tracé_225" data-name="Tracé 225" d="M805.522,1221.366c.2.659-1.552.017-2.353-.07a24.717,24.717,0,0,1-4.179-.983.272.272,0,0,1,.14-.316,35.711,35.711,0,0,0,6,1.369C805.323,1221.372,805.4,1221.255,805.522,1221.366Z" transform="translate(-762.403 -1181.75)" fill-rule="evenodd"/>
      <path id="Tracé_226" data-name="Tracé 226" d="M1047.837,1221.742c-.118.191-.342.144-.527.211-.387.14-.776.37-1.194.491-.365,0-5.191,1.324-5.372,1.124.117-.368,2.569-.565,5.408-1.44C1046.681,1221.964,1047.582,1221.431,1047.837,1221.742Z" transform="translate(-982.104 -1183.249)" fill-rule="evenodd"/>
      <path id="Tracé_227" data-name="Tracé 227" d="M787.529,1238.786c-.112.121-.226-.019-.351-.035s-.256.016-.386,0c-.084-.01-1.731-.272-1.931-.6-.1.088-.2-.033-.281-.07-.218.109-.365-.1-.527-.035-.07-.188-.489-.026-.422-.351a16.08,16.08,0,0,1,2.6.737C786.24,1238.432,787.317,1238.718,787.529,1238.786Z" transform="translate(-748.448 -1197.834)" fill-rule="evenodd"/>
      <path id="Tracé_228" data-name="Tracé 228" d="M761.773,1245.007a6.787,6.787,0,0,1,1.4.667c.741.134.862.335,1.615.527.088-.006.085.079.14.105a6.632,6.632,0,0,1,1.966.878c-.169.291-2.469-1.029-4.179-1.4C762.407,1245.48,761.773,1245.476,761.773,1245.007Z" transform="translate(-728.59 -1204.477)" fill-rule="evenodd"/>
      <path id="Tracé_229" data-name="Tracé 229" d="M942.22,1245.191c-.191.318-4.051.81-4.214.211.186-.349-.341.314,3.511-.211C941.758,1245.158,942.007,1244.988,942.22,1245.191Z" transform="translate(-888.741 -1204.555)" fill-rule="evenodd"/>
      <path id="Tracé_230" data-name="Tracé 230" d="M910.38,1246.932c-.022.4-.557.338-.913.386-.338.046-.864.194-1.088-.07.019-.122.165-.116.21-.211A6.265,6.265,0,0,0,910.38,1246.932Z" transform="translate(-861.818 -1206.227)" fill-rule="evenodd"/>
      <path id="Tracé_231" data-name="Tracé 231" d="M844.114,1248.975c-.11.234-.4.139-.6.141-3.238.02-6.016.225-9.059-.772-.157-.052-.427-.01-.386-.281.441-.1.18-.015,1.475.316C839.038,1249.271,843.7,1248.719,844.114,1248.975Z" transform="translate(-794.287 -1207.216)" fill-rule="evenodd"/>
      <path id="Tracé_232" data-name="Tracé 232" d="M760.7,1254.916c-.09.158-.238-.029-.386-.07-6.422-1.785-5.19-2.088-5.969-2.037-.048-.083-.7-.492-.316-.492C758.879,1254.651,760.99,1254.514,760.7,1254.916Z" transform="translate(-721.446 -1211.121)" fill-rule="evenodd"/>
      <path id="Tracé_233" data-name="Tracé 233" d="M934.01,1255.818c-.035.141-.292.059-.316.211a5.638,5.638,0,0,0-.983.316c-.12.039-.237.032-.351.07-.406.136-.771.458-1.159.386-.194.157.073,0-2.949.878-2.491.721-3.159.834-3.441.456-.765.245-1.585.556-2.458.808-.765.221-4.231.906-4.74.526,2.3-.257,4.976-.8,4.986-.807.186-.055.319-.145.562-.211,1.3-.354,1.768-.751,2.037-.421,1.1-.033,8.487-2.209,8.5-2.212C933.761,1255.8,933.888,1255.663,934.01,1255.818Z" transform="translate(-870.208 -1214.235)" fill-rule="evenodd"/>
      <path id="Tracé_234" data-name="Tracé 234" d="M758.319,1263.488c-.14.107-.224-.057-.351-.105-3.873-.707-5.046-1.576-5.056-1.58-.284-.116-.7-.044-.773-.421-.054-.386,1.368.508,2.458.878C758.037,1263.426,758.324,1263.031,758.319,1263.488Z" transform="translate(-719.834 -1219.271)" fill-rule="evenodd"/>
      <path id="Tracé_235" data-name="Tracé 235" d="M831.786,1273.866a42.419,42.419,0,0,0,6.636.983c-.1.364-.469.137-.737.105a11.389,11.389,0,0,1-2.037-.141c-.526-.067-1.024-.212-1.51-.246C833.729,1274.54,831.712,1274.371,831.786,1273.866Z" transform="translate(-792.213 -1230.703)" fill-rule="evenodd"/>
      <path id="Tracé_236" data-name="Tracé 236" d="M911.621,1274.083c-.6.121.33.109-1.159.176a13.932,13.932,0,0,1-2.95.456c-2.787.3-1.777.158-2.493.246.009-.126-.105-.128-.105-.246C905.087,1274.721,913.067,1273.8,911.621,1274.083Z" transform="translate(-858.669 -1230.85)" fill-rule="evenodd"/>
      <path id="Tracé_237" data-name="Tracé 237" d="M929.949,1276.56c-.151.416-1.852.632-3.3.843-1.278.186-2.7.572-2.879.211C923.848,1277.491,925.164,1277.483,929.949,1276.56Z" transform="translate(-875.804 -1233.151)" fill-rule="evenodd"/>
      <path id="Tracé_238" data-name="Tracé 238" d="M828.727,1283.539c.074-.311.394-.153.562-.105,4.121,1.167,7.332.641,7.409.843C836.682,1284.656,830.645,1284.4,828.727,1283.539Z" transform="translate(-789.435 -1239.322)" fill-rule="evenodd"/>
      <path id="Tracé_239" data-name="Tracé 239" d="M611.075,935.179c.093-.05-.065.17-.105.211C610.856,935.307,611.05,935.239,611.075,935.179Z" transform="translate(-591.516 -922.916)" fill-rule="evenodd"/>
      <path id="Tracé_240" data-name="Tracé 240" d="M479.5,836.375c-.358.131-.866-.129-1.264-.035-.114.027-.162.148-.316.246a21.931,21.931,0,0,0-5.583,1.475c-.071.025-.154-.019-.211,0-3.44,1.148-5.078,3.324-9.516,4.916-.407.146-.853.474-1.334.667-11.4,4.565-21.751,4.137-28.582,1.545-.369-.14-.744-.277-1.124-.386a34.243,34.243,0,0,1-5.021-2.388,39.069,39.069,0,0,1-9.551-6.25c-5.944-4.818-8.941-16.937-8.533-15.415-.164-.61-.214-1.257-.386-1.9-1.043-3.881-.551-3.948-1.264-6.285-.689-2.259-.473-4.991-2.142-5.9-.47-.256-4.4-1.114-5.3-1.9-.471-.408-.38-1.069-.878-1.475.108-.263-.336-.455-.351-.737-.016-.31.338-.515.527-.807s.265-.68.562-.773,4.83,1.388,5.618,1.58c5.137,1.252,5.361-3.075,19.137-1.229,11.289,1.512,13.625-3.474,35.184,9.024,5.267,3.054,8.547,7.681,11.412,12.957.05.092,5.337,7.429,5.3,8.427A16.676,16.676,0,0,0,476.974,833c1.7,1.384,1.641.886,2.493,2.458C479.621,835.746,479.758,836.078,479.5,836.375Zm-14.818-18.856c-.2.044-.276-.159-.351-.281-2.381-3.893-2.635-4.113-2.774-4.565-.111-.1.111-.15,0-.246a1.255,1.255,0,0,1-.667-.456c-.173-.075-2.716-1.709-2.739-1.756-.344-.018-.471-.254-.772-.316.036.106,2.771,4.481,2.633,4.635-.105-.04-2.993-4.434-2.914-4.846a63.8,63.8,0,0,0-6.882-3.2c-4.472-2.142-7.77-4.229-13.87-4.354.312.583,2.616,2.623,2.388,3.055a4.45,4.45,0,0,1-.843-1.018c-.268-.072-.3-.377-.562-.456.013-.236-.877-.949-1.3-1.4-.042-.075-.038-.2-.105-.246-3.13,0-5.5-.08-7.971-.035.623,1.079,1.231,1.238.983,1.545-.2-.023-1.052-1.228-1.44-1.615-.841-.039-1.353-.065-2.072-.035a13.794,13.794,0,0,0,1.685,2.142c0,.07-.1.045-.07.14,1.371-.609,3.381-.465,4.249.492a6.323,6.323,0,0,1,1.756-.421c-.163-.5-.84-.71-.843-1.229.294.027.445.309.6.492.651.78.464.613.737.6-.222.227.391.228.456.211-.1-.076-.173-.178-.281-.246-.131-.359-.6-.53-.491-1.018,1.139,1.235,1.12,1.43,1.65,1.44.276.262.766.311.878.737a.407.407,0,0,1,.316-.07c1.968.8,1.071.239,3.055.316a8.859,8.859,0,0,1,2.844.7c.041.182.2.24.316.351.966-.08,1.3.405.421-.6-.173-.2-.471-.393-.421-.7.229-.053.211.141.386.14.25.548,1.053,1.034.632,1.229,3.054-.109,3.039,1.36,1.194-1.229-.111-.017-.079.108-.211.07a1.921,1.921,0,0,1-.492-1.053c.3-.216.428.122,2.177,2.353.041.139-.013.169.07.281a9.655,9.655,0,0,1,.983.141c-.5-.771-1.1-1.456-1.58-2.247.269-.38,1.691,2,1.791,2.177-.269.374.612,0,1.58,1.194a9.511,9.511,0,0,1,1.369.632c.033.161.345.188.457.07-.436-.823-.934-1.315-.492-1.334.375.42.6.994.948,1.44,1.089,0,3.185.868,3.406,2.318.208-.009.24.158.421.176.353.479.982.68,1.229,1.264a9.692,9.692,0,0,1,2.317.948c-.157-.4-2.322-3.91-2.7-4.495.072-.01.069-.1.141-.105.557.426.777,1.189,1.229,1.721,1.461,2.941,1.444,2.431,1.58,2.879-.09.069-.161-.036-.211.035a2.519,2.519,0,0,1,.843,1.229c.248.033.244.318.527.316-.038.178.135.146.211.211a1.23,1.23,0,0,0-.14.211c.324.051.5.246.843.281a5.454,5.454,0,0,0,.948.632c.078.1.223.314.316.281-1.184-2.032-1.824-2.207-1.4-2.423a16.554,16.554,0,0,1,1.9,2.879c.034.151-.1.136-.105.246.124.423.764.636.281,1.861a3.015,3.015,0,0,1,2.844,2.669c1.139.94.542.514.843.843,1.072,1.17,1.083,2.222.632,2.458.866.516.886,2.306,1.018,2.774.072.254.221.478.281.737.684,2.956-8.24,4.374-11.412,4.7-1.267.133-2.64-.144-4-.035-5.018.4-15.082-2.126-19.909-3.722-3.6-1.191-14.9-7.791-15.977-11.131a16.784,16.784,0,0,1-2.985-4.951,11.255,11.255,0,0,1-.316-3.9c.233-5.018,3.405-5.23,8.533-5.829.09.027.059.175.176.176a5.226,5.226,0,0,1,4-.492c.486.424,1.208,1.277-1.44-2a51.572,51.572,0,0,0-11.974-.175c-2.866.36-4.4,2.123-7.585,1.475a9.108,9.108,0,0,1-1.124-.281c-5.4-1.975-5.023-1.3-5.3-.878-.4.61-.249.381-.07.983.23.156.6.168.808.351.008-.05.175.033.281,0,.147.165.381.153.6.211.285.076.563.227.843.316,2.852.9,4.684,1.46,5.091,4.425.073.533.289.976.316,1.51.4.75.435,2.894.843,3.757,2.565,5.423,12.749,18.987,24.755,21.595-.08-.557-.89-1.008-.562-1.264.525.283.638.977.983,1.44.821.069.374.122-.035-.527-.565-.895.034-.859.211-.141a2.177,2.177,0,0,1,.562.7c.218.074.329.256.562.316-.192-.492-.868-1.045-.492-1.264.239.215.03.1.983,1.44.307,0,.458.151.7.211-.117-.388-.7-.641-.527-1.089.41.162.654.936,1.018,1.194.7.392,14.238,2.7,14.677,2.563-.412-.349-.676-.845-1.053-1.229-.12-.121-.328-.178-.351-.386.041-.052.03-.157.14-.14.369.161.553.543.773.843.826,1.128.664.936,1.4.948-.183-.458-.345-.466-1.264-1.65-.126-.162-.433-.333-.316-.6.35.094.454.436.632.7.551.42.863,1.08,1.369,1.545.856-.251,1.4.462.105-1.018a2.232,2.232,0,0,1-.562-.7c-.161-.06-.262-.257-.386-.386-.108-.113-.376-.229-.246-.457.362.228.5.4,1.756,1.861.753.874.449.615,1.054.562a23.545,23.545,0,0,0,3.652-.386c-.261-.106-.425-.45-.632-.667-.131-.136-.518-.281-.316-.527.251-.012.754.8,1.229,1.194a43.992,43.992,0,0,0,5.3-1.159c-.092-.164-.278-.246-.421-.386-.184-.18-.327-.421-.492-.6-.1-.107-.361-.209-.246-.421.34-.03.8.894,1.3,1.229.041.092-.108.151.035.141a47.109,47.109,0,0,1,5.232-1.194c.052-.157-.123-.143-.175-.175-.014-.008-.02-.091-.035-.105-1.988-1.836-2.479-2.012-2.353-2.317.387.026.518.293.737.527a23.189,23.189,0,0,0,2.212,2c.334.075.669-.12,1.054-.07a27.6,27.6,0,0,0-2.563-2.423c.674-.192,1.987,1.618,2.879,2.388a2.4,2.4,0,0,0,.6-.035c0-.416-2.121-1.748-1.756-2.072.048.026,1.866,1.576,1.826,1.791a1.628,1.628,0,0,0,1.334.246c-.713-.895-1.68-1.36-1.685-1.685.628-.092,1.558,1.33,2.107,1.685a1.7,1.7,0,0,1,.632.035c-.411-.6-1.559-1.227-1.264-1.686.591.556,1.116,1.178,1.756,1.686a3.737,3.737,0,0,0,1.018-.035c-.114-.048-1.469-1.138-1.369-1.685.2-.008.242.133.281.281.488.354.788.9,1.3,1.229.068.1.116.091.07.246,1.392.034,2.9.2,4.214.141a3.648,3.648,0,0,0-1.685-1.931c-.452-.531-1.18-.786-1.545-1.4a11.42,11.42,0,0,1-1.3-2.528c-.118-.119-1.493-2.454-1.51-2.493-3.65-4.392-3.27-5.127-4.6-7.023-2.518-3.588-1.147-1.418-1.018-.772-.062.15-.333-.022-.351.105.1.138.27.369,0,.492-.286-.217-.37-.637-.527-.983-.137-.054-.185-.283-.281-.457-.073-.132-.352-.365-.035-.456.372.295.523.811.808,1.194.021-.357-.466-.781-.422-1.088.021-.144.1-.156.211-.281-1.647-2.679-4.514-5.441-5.021-5.548A51.305,51.305,0,0,1,464.684,817.519Zm-64.89-13.308s-.2-.046,1.58.878a.88.88,0,0,1,.351-.035c.341.221,3.065,1.057,3.055,1.053.194.093.361.324.6.281a4.3,4.3,0,0,0-.913-.843,22.306,22.306,0,0,0-2.739-1.124C399.162,803.525,399.251,803.465,399.795,804.211Zm22.473.737c-.269.4-.746.588-.948,1.053.248-.08.359-.3.667-.316a1.091,1.091,0,0,1,.527-.386c-.011.081.1.039.105.105-.328.515-1.206.479-1.264,1.264.3.122.451.391.737.527a1.868,1.868,0,0,1,1.018-.878c.221-.149.357-.394.667-.281-.525.42-1.356,1.035-1.4,1.089s-.029.154-.07.211c-.053.073-.237.035-.14.176.193.065.322-.138.456-.211a2.256,2.256,0,0,0,.281-.105c.3-.216.447-.635.737-.843a1.538,1.538,0,0,1,.246-.105,4.134,4.134,0,0,1,1.124-.843c.029-.221,1.136-.753,1.334-.843-.125-.366-.578-.406-.948-.527.022.11.083.048-1.369.878-.007-.732.6-.4.878-.843A6.052,6.052,0,0,0,422.267,804.949Zm6.285-.7a10.278,10.278,0,0,0-1.65.562c-.02.342-.558.167-.7.386a7.62,7.62,0,0,0-1.615,1.088,1.337,1.337,0,0,0-.492.422c.146.018.155-.1.316-.07a4.467,4.467,0,0,1,2.107-1.264.2.2,0,0,0,.035.14c-.406.519-1.331.519-1.72,1.053a2.764,2.764,0,0,0,1.229-.316c.185-.327.762-.356,1.159-.562a.3.3,0,0,1,.035.211,1.108,1.108,0,0,0-.6.211c-1.235.685-.651.477-.386.667.385-.4,1.61-1.114,1.58-.632a2.9,2.9,0,0,0-1.159.667c.056.049.037.173.105.211.531-.239,1.168-.9,1.3-.527a4.859,4.859,0,0,0-.948.773.7.7,0,0,1,.281.141c.251-.6,2.9-2.257,3.23-2.423-.006-.283-.876-.7-1.756-.7-.069.027.1.112.035.246a1.724,1.724,0,0,1-.632.246c-.05.288-.622.44-.527-.035C428.164,804.513,428.923,804.376,428.553,804.246Zm-7.268.6c.043.2-.1.389-.035.492a3.084,3.084,0,0,1,.562-.562A.959.959,0,0,0,421.284,804.843Zm10.007.316c-.039.143-2.739,1.511-3.055,2.177-.244.025-.259.28-.491.316.118.292.461.358.562.667.99-.4.489-.493.632-.7a6.38,6.38,0,0,1,2.142-1.229c.048.413-1.792.988-1.72,1.3.193-.143.466-.105.7-.211a3.056,3.056,0,0,1,2.7.035c.369-.345.911-.518,1.229-.913.457-.221,1.055-.3,1.369-.667C435.458,804.6,432.683,804.569,431.292,805.159Zm-10.569-.281a7.091,7.091,0,0,1-.141,1.018c.242-.006.224-.265.246-.386.038-.219.238-.433.14-.632C420.84,804.909,420.781,804.816,420.722,804.878Zm-.457.105c-.017.436-.2.691,0,1.054.087-.3.069-.914.351-1.124A.494.494,0,0,0,420.266,804.984Zm-.948.106c-.1.278-.345.954-.035,1.194.02-.369.064-.979.421-1.124a4.371,4.371,0,0,0-.035,1.264c.352-.092.962.209.562-.316-.078.074-.074.23-.246.211-.3-.333.021-.768-.035-1.264C419.757,804.955,419.509,805.073,419.318,805.089Zm-.632.105c.036.622-.533,1.7.176,1.4a4.535,4.535,0,0,1,.105-1.44C418.854,805.151,418.818,805.221,418.686,805.194Zm-1.721.386a5.464,5.464,0,0,1-.176,1.124c.16.422-.107,1.041,0,1.4.572-.527.287-.356.316-.527.129-.5-.046-1.547.456-1.931l-.176,1.861c.03-.076.154-.057.211-.105.22-.477.1-1.1.386-1.475.028-.122-.066-.148,0-.211.049-.138.17-.2.246-.316-.115,1.326-.544,2.032,0,1.58-.127-.447.2-1.192.211-1.756A4.328,4.328,0,0,0,416.965,805.581Zm-.562.316a.3.3,0,0,1-.035.351c.163.631-.162,1.625-.035,2.318.256-.282.151-.731.176-1.089.016-.24.142.07.105-1.545.015-.059.154-.169.07-.211C416.593,805.782,416.448,805.789,416.4,805.9Zm-.632,3.546c.477-.342.124-1.054.492-3.511C415.533,805.927,415.993,808.4,415.771,809.443Zm25.352-3.125a8.959,8.959,0,0,0-4.179-.211,4.186,4.186,0,0,0-1.089.175c-.159.342-.576.25-.913.386-.081.033-.186.137-.281.175a7.41,7.41,0,0,0-1.3.878c.034.153.173.2.351.211a6.013,6.013,0,0,1,1.65-.948c.022.072.178.01.14.14-.469.386-1.27.585-1.58,1.018a3.581,3.581,0,0,1,.632.843,6.266,6.266,0,0,1,2-1.159c.19-.083.459-.287.667-.105-.259.379-.615.118-2.036,1.053-.005.108.124.158.035.246-.135-.019-.389.119-.632.105v.281a9.533,9.533,0,0,0,1.685-.808c.4-.272,1.645-1.062,1.861-.632a4.868,4.868,0,0,0-1.685.808A9.061,9.061,0,0,1,438,808.67c.023-.188.179-.242.246-.386h.176a9.672,9.672,0,0,1,3.406-1.3C441.8,806.556,441.4,806.493,441.123,806.318Zm-20.471.14c.167.02.363.09.386-.105C420.908,806.3,420.759,806.39,420.652,806.458ZM415.35,808c.381.065.149-1,.246-1.65C415.289,806.353,415.37,807.5,415.35,808Zm-.457,1.124a6.747,6.747,0,0,0,.211-2.388A5.677,5.677,0,0,0,414.894,809.127Zm6.777-1.685c-1.726-1.148-2.811-.53-4.143.632-.538.171-1.8,2.235-1.861,2.317a1.5,1.5,0,0,0,.632-.14c.049-.158.791-1.361,1.018-1.3.043-.323,1.7-1.555,1.721-1.194-.01.007-2.321,1.5-2.388,2.563a4.431,4.431,0,0,1,.456.035,12.433,12.433,0,0,1,.878-1.089c.173-.254.438-.639.772-.562-.012.257-1.147,1.278-1.334,1.756a.53.53,0,0,0,.316.176c.117-.322.536-.63.772-.948a1.566,1.566,0,0,1,.527-.105c-.3.464-.953.705-.983,1.334.108-.026.067.1.176.07.083-.063.792-1.267,1.194-1.089-.152.34-.531.453-.632.843-.186.118-.436.409-.246.6.5-.447,2.228-3.049,3.23-3.336A2.281,2.281,0,0,0,421.67,807.442Zm-2.809,6.215a3.736,3.736,0,0,1,.983-1.4,2.437,2.437,0,0,1,.843-.948c-.008-.1,1.038-1.51,1.264-1.089a15.958,15.958,0,0,0-1.861,2.107c-.108-.026-.067.1-.176.07-.092.283-.32.429-.386.737-.1.069-.272.242-.211.351a2.864,2.864,0,0,1,.667-.105,9.75,9.75,0,0,1,.6-1.054c.488-.365.819-1.406,1.44-1.4,0,.023-.492.7-.492.7-.041.055-.135.093-.176.141a13.386,13.386,0,0,0-.983,1.44c.148.087.173.3.421.281a8.668,8.668,0,0,1,.562-1.089c.043-.059.145-.1.211-.175.221-.267.519-.855.878-.632a7.993,7.993,0,0,0-.808,1.018c-1.011,1.4-.446.824.983,2.072.012-.175.2-.18.141-.421a2.145,2.145,0,0,0,.421-.808,1.611,1.611,0,0,0,.421-.772c.819-.974,2.964-3.521,4.284-4.073a3.44,3.44,0,0,0-4.46-1.264c-.026.138-.139.189-.246.246-.067.066-.064-.021-.176,0-2.8,1.741-3.7,3.925-4.179,4.284.136,1.007-1.841,2.937-1.791,3.265A6.01,6.01,0,0,1,418.861,813.657Zm29.074-5.443c-.565-.42-.19-.258-1.51-.6a6.069,6.069,0,0,0-1.966-.492,7.656,7.656,0,0,0-2.739.351c.074.055.217.04.176.211a4.944,4.944,0,0,0-2.247.807c-.036.165.164.094.141.246-.239.174-.4,0-.422-.141-.027-.23.4-.4.457-.527-.436.177-.942.327-1.124.737,2.616,1.091,2.224,1.554,2.669,1.826,1.173-.168,2.033-1.244,3.055-.948-.059.14-.269.129-.456.14-.5.3-1.1.285-1.475.7.552.033.885.286,1.4.351a13.118,13.118,0,0,1,4.249-1.58C448.626,808.882,448.277,808.468,447.935,808.214Zm-33.5-.035c.063.011.312-.5.14-.632C414.55,807.8,414.437,807.994,414.437,808.179Zm11.868,4.354c-.061.021,0,.167-.07.175a13.2,13.2,0,0,0-1.685,2.177c0,.109-.975,2.013-.983,2.072.088-.017.1-.117.14-.176a23.125,23.125,0,0,1,2.353-3.441c.225-.028.341-.281.527-.07-.082.257-.375.3-.562.456-.366.664-.965,1.1-1.229,1.861a1.948,1.948,0,0,0-.562.948c-.967,1.016-.061,1.327,0,.6a6.684,6.684,0,0,0,.6-1.124c.083-.033,1.434-2,1.44-2.036.241-.062.376-.57.7-.316.018.205-.208.167-.246.316-.1.084-.153.221-.316.246-.156.347-.478.529-.6.913-.073.021-.113.074-.175.105a16.84,16.84,0,0,0-1.089,2.037c.228-.073.351-.042.6-.105a5.275,5.275,0,0,0,.562-1.018c.459-.481,1.315-2.393,1.791-1.931-.519.656-1.9,2.35-1.931,2.915.191-.027.284.043.456.035.289-.674,1.19-2.919,1.756-2.563-.088.03-.074.16-.211.141-.137.467-1.766,2.671-1.018,2.6.228-.639.844-2.127,1.51-2.247a8.208,8.208,0,0,0-1.194,2.423c.068.143.242.18.386.246.237.254.415.568.667.807.192-.4.172-1.022.421-1.369-.02-.029-.227-.349,0-.421,0,.09.007.181.105.176.418-1.725,3.936-5.714,5.443-7.444.592-.245-.17-.912-.316-1.159a6.672,6.672,0,0,0-2.493-.737c-5.746,1.636-7.848,7.374-8.006,7.479a1.764,1.764,0,0,1,.456,1.264c.114-.132.107-.385.281-.456a1.783,1.783,0,0,1,.491-.948,11.719,11.719,0,0,1,.843-1.439c.091-.014.106-.1.211-.105.094-.386.464-.5.6-.843.218-.082.432-.477.7-.281A.449.449,0,0,1,426.305,812.533Zm-10.78-3.652a2.467,2.467,0,0,0-.176,1.159A2.565,2.565,0,0,0,415.526,808.881Zm19.137,7.83c-.108.413-.639.841-.843,1.615a2.226,2.226,0,0,0-.421,1.018c-.139.073-.186.421-.176.527a4.758,4.758,0,0,0,.527-1.264c.13-.086,3.726-6.44,7.058-7.8-.072-.73-1.875-1.633-2.809-1.721a9.8,9.8,0,0,0-2.6.351c-.579.24-.975.664-1.545.913-.906,1.168-6.29,7.953-5.3,9.059.5-1.647,2.05-4.779,2.774-5.162.08-.176.159-.425.386-.351.047.241-.177.4-.316.527a10.749,10.749,0,0,0-2.247,4.424,4.363,4.363,0,0,0-.527,1.58c.188-.09.183-.336.246-.492a7.22,7.22,0,0,0,.667-1.58c.2-.1.18-.4.351-.527a.228.228,0,0,0-.035-.175,7.653,7.653,0,0,0,.772-1.37c.33-.21.5-.763.913-.772-.094.3-.347.448-.562.632a13.972,13.972,0,0,0-1.51,3.265c-.053.267-.294.455-.316.737.192-.042.311-.157.492-.211.045-.362,1.3-3.107,1.791-3.2a2.39,2.39,0,0,1-.351.7c-1.9,3.206-.943,2.239-.035,2.212.52-.016.583.093.527-.421a8.1,8.1,0,0,0,.386-.913c.272-.173.226-.664.6-.737.543.355-.819.975-.562,1.9-.072.139-.33.092-.421.211a1.344,1.344,0,0,0,.7.035c-.009-.1.079-.108.07-.21-.052-.006-.13.012-.14-.035h.175c.31-.948,2.619-5.235,2.669-4.108-.076-.006-2.4,3.731-2.247,4.038-.177.057-.169.3-.246.456.106.035.157.124.316.106.109-.418.148-.906.421-1.159a7.026,7.026,0,0,1,1.124-2.072c.07-.2.156-.382.386-.422A.233.233,0,0,1,434.662,816.712Zm14.432-3.125h-.211c-.086.172-.513.188-.492.351a3.205,3.205,0,0,1,1.44-.07c.077-.086.129-.2.246-.246a19.164,19.164,0,0,1,3.547-.913c.088-.412.442-.622.386-1.088-.151-1.265-2.065-2.074-3.371-2.072-.644,0-3.333.387-3.406.386a2,2,0,0,1-.983.281.747.747,0,0,1-.492.176c-.036.14-.869.432-1.37.808.144.008.185.119.316.14.05-.083,2.457-1.456,3.968-1.264,0,.054-2.814.64-3.722,1.475a6.255,6.255,0,0,1,1.018.6c-.019-.253.247-.222.316-.386h.176c.051-.142,1.412-.677,1.51-.246a1.5,1.5,0,0,1-.878.176c-.167.138-.443.165-.632.281a.4.4,0,0,1-.351.316c.114.061.176.175.316.211.514-.253,1.815-.886,1.756-.316-.549.188-1.292.183-1.65.562a1.546,1.546,0,0,0,.211.351c.034-.02,1.966-.7,1.966-.7.145-.033.565-.135.632.106-.786.283-1.509.414-2.282.7-.15.131.275.279-.246.281.087.962.215.126.843.105.052-.145,2.444-1.294,2.7-.773a8.693,8.693,0,0,0-3.406,1.475c-.131.037-.113-.074-.176-.105-.011.2-.242.366-.246.457a4.419,4.419,0,0,1,1.3-.527.172.172,0,0,1,.07-.176,6.065,6.065,0,0,1,.772-.492c.083-.034,1.827-.526,2.037-.281A10.439,10.439,0,0,0,449.094,813.586Zm-34.306-3.055c.045,0,.215-.527.14-.6C414.877,810.129,414.832,810.329,414.788,810.532Zm-.457.246c.113.007.085-.125.14-.176-.07,0-.045-.1-.14-.07A.531.531,0,0,1,414.332,810.777Zm.457.14c-.05-.152.035-.243,0-.316C414.732,810.627,414.639,810.913,414.788,810.918Zm1.58-.281c-.04.183-.32.125-.492.176-.037.072,0,.143-.07.246-.331.09-.648.719-1.194,1.4,0,.2.1.3.105.492.406-.308.559-.869.983-1.159v-.14c.222-.078.285-.624.562-.421-.3.753-1.517,1.693-1.264,2.423.158-.023.048-.183.246-.211.141-.6.61-.864.843-1.369.2-.013.328-.421.527-.211-1.351,1.662-1.625,2.256-1.475,2.985.134.028.045-.166.07-.246.1-.108,1.022-1.713,1.053-1.791a1.477,1.477,0,0,0,.421-.421c.075-.056.224-.112.281,0a5.93,5.93,0,0,0-1.229,1.931.755.755,0,0,0-.246.667c-.169.121-.3.541-.07.667a3.978,3.978,0,0,0,.105-.667c.062-.082,1.144-2.089,1.756-2.177-.081.331-.329.419-.351.667-.1,0-.071-.058-.14,0-.132.3-1.716,2.443-1.089,2.774a3,3,0,0,0,.562-.913,4.664,4.664,0,0,0,1.159-1.721c.153.154.793-.847.878-1.264a.368.368,0,0,1-.07-.492A2.628,2.628,0,0,0,416.368,810.637Zm23.526,10.745c1.06-2.494,4.086-6.04,6.18-6.847.037-.163.216-.192.281-.316.268-.514-.175-1.306-.562-1.72-2.264-1.284-2.961-2.137-4.986-1.089a9.676,9.676,0,0,1-1.615,1.124c-2.578,3.088-2.2,2.137-3.757,4.776a15.562,15.562,0,0,1-.913,1.615c-.787,2.389-.363,1.592-.281,1.615.139-.046.085.129.176.035l.878-2.353c.037-.085.128-.153.176-.246.479-.935.617-1.569,1.018-1.3-.625.89-2.126,4.25-1.9,4.705.734-1.776,1.267-3.3,1.756-3.406.174.29-.131-.025-.843,1.966a5.15,5.15,0,0,0-.667,1.791c.384-.038.12-.482.7-1.264-.025-.13.06-.151.035-.281.268-.155.207-.968.667-.7-.125.261-.179.593-.386.773-.167.638-.765,1.6-.492,1.685a.488.488,0,0,0,.246-.421c.368-.331.69-1.936,1.088-1.475a20.79,20.79,0,0,0-.913,1.9c.146-.04.137.074.246.07.3-.521.468-1.694,1.089-1.756a.3.3,0,0,1-.176.421,6.447,6.447,0,0,0-.6,1.51c.511-.055.613-1.877,1.229-1.65-.1.437-.426.651-.457,1.159a.507.507,0,0,0-.176.386c.191-.011.233.048.386,0,.013-.083.413-1.612.878-1.51.015.083-.762,1.6-.351,1.58.149-.143.212-.556.386-.632.034-.279.244-.811.6-.773-.387,1.1-1,1.625-.351,1.545.067-.12,2.227-4.91,2.669-4.389-.141.271-.36.477-.527.737-.517.809-.8,1.747-1.334,2.493-.09.474-.53.779-.456,1.3a2.422,2.422,0,0,0,.492.246A7.1,7.1,0,0,1,439.894,821.382Zm-25.7-9.516c.171-.036.109-.1.14-.246-.052-.018-.089-.052-.14-.07C414.139,811.606,414.222,811.726,414.191,811.866Zm41.223,4.143c-.273.088-1.672.667-1.756.913.559-.049,2.781-1.3,5.3-1.3-.034-1.331-2.354-2.639-4.951-2.528-.058,0-.141.068-.211.07a11.453,11.453,0,0,0-3.3.808c.206.251.666.247.843.527.257.036.379.206.632.246a1.846,1.846,0,0,1,.807-.246,2.913,2.913,0,0,1,.737-.281c.193-.063.649-.281.737-.035-.382.312-.826.213-2.036.7.507,1.1.894-.2,2.388-.211.022.1.147.087.141.211a4.3,4.3,0,0,0-1.756.632c.062.18,0,.255.105.491.552-.177,1.864-1.006,2.036-.632-.01.207-.3.19-.457.246s-.351.19-.492.141a2.685,2.685,0,0,1-.772.386c0,.214-.15.271-.281.351a.245.245,0,0,1,.035.281c.759-.225,1.213-.818,2.037-.878.139-.1.593-.341.667-.07C455.786,816.022,455.572,815.959,455.415,816.009ZM419.7,821c.1-.131.158-.31.386-.316a1.9,1.9,0,0,1,.527-.6c.008-.585,3.213-3.261,2.212-4.6a7.721,7.721,0,0,0-2.282-1.58,2.673,2.673,0,0,0-2,.491c.032-.085.2-.015.211.035-.535.656-2.643,3.277-1.791,3.546-.032-.968,1.4-2.423,1.369-2.6.173.033.069-.212.246-.176-.022-.15.114-.143.105-.281.224-.035.311-.537.562-.316-.578.651-1.051,1.407-1.58,2.107-.008.066.04.077.035.14a1.757,1.757,0,0,0-.492,1.124c.2.171-.115.394.141.562a4.421,4.421,0,0,1,1.053-1.966c.041-.38.316-.526.421-.843.175-.035.167-.254.351-.281-.019-.17.182-.364.421-.386-.693.844-2.71,3.927-1.65,4.108.219-1.485,1.833-3.595,2.037-3.3-.09.3-.368.4-.457.7-.077.04-.117.117-.211.141a8.521,8.521,0,0,0-.983,2.072c-.246.348-.042.229-.176.7.085.067.117.188.211.246a.82.82,0,0,0,.07-.386c.959-1.516,1.478-3.232,2.212-3.02-.488.47-2.736,3.876-1.756,3.687a10.849,10.849,0,0,1,1.861-3.2.66.66,0,0,1,.386-.07c-.38.531-.68.677-.632.878a7.732,7.732,0,0,0-1.44,2.7c.2.13.553.914.492.07a8.659,8.659,0,0,1,1.65-2.879c.008-.066-.04-.077-.035-.14.174-.061.368-.286.527-.246A10.127,10.127,0,0,0,419.7,821Zm28.512-6.6a3.891,3.891,0,0,1-.913.281,6.032,6.032,0,0,0-.983.527c-2.533,1.285-4.948,4.63-4.881,5.443-.1.062-.139.189-.281.211-.025.062-.607,1.272-.667,1.3a9.821,9.821,0,0,0-.211,1.369c.043-.285.276-.38.281-.7.244-.377.329-.911.632-1.229-.017-.111.063-.124.035-.246.122-.042.148-.18.175-.316.151-.071.175-.27.246-.422.182-.017.125-.273.316-.281.069.048.163.071.175.176a8.311,8.311,0,0,0-1.615,3.406c.365.084.267-.294.456-.386.042-.4.353-.536.421-.913.093-.024.074-.16.176-.175.1-.271.149-.6.386-.737.378.441-.837,1.4-1.018,2.7.239.2.331.362.562.527.362-.377.894-.1.843-.7.077-.165,1-1.926,1.018-2.072.509-.5.733-1.568,1.124-1.229a20.011,20.011,0,0,0-2,3.617,5.892,5.892,0,0,0,.6-.07c.013-.6.4-.814.527-1.3h.105c0-.153.1-.207.105-.351.169-.027.742-1.379.878-.878-.169.475-.566.721-.7,1.229a1.948,1.948,0,0,0-.632,1.3,5.832,5.832,0,0,1,1.756.737c1.252-4.159,6.759-7.457,6.812-7.444.079-.163,1.167-1,.527-1.685a6.215,6.215,0,0,0-2.634-1.791,3.232,3.232,0,0,0-.7.035c.093-.01.091.073.105.14a4.068,4.068,0,0,1-.7.351c-.085.115-.264.32-.456.211.1-.63,1.32-.623.948-.738A4.615,4.615,0,0,1,448.216,814.394Zm-30.619.878c-.65.376-1.04,1.482-1.334,1.791a.623.623,0,0,0,.281.421c.128-.187.425-1.544.843-1.756-.046-.139.129-.085.035-.175.11.017.093-.095.176-.105.088-.322.5-.5.527-.772C417.962,814.887,417.753,815.053,417.6,815.272Zm3.371,22.543c-.179-.344-2.141-1.429-2.247-1.721h-.211c-.2-.256-.481-.432-.7-.667v-.246c-.289-.075-.067-.163-1.756-1.334-.568-.394-1.725-1.475-2.142-1.826a18.808,18.808,0,0,0,2.247,2.458,41.233,41.233,0,0,0,5.021,3.827,22.343,22.343,0,0,0,2.247,1.756c-.15-.212-.613-.514-.351-.808,1.05,1.364,5.067,2.58,6.18,3.3h.246c.028.136.228.1.316.175-.061.114-.046.305-.246.281-.06-.127-.237-.138-.281-.281-.632-.076-4.876-2.236-5.162-2.212,4.222,2.321,1.139.781,7.725,3.547,2.416.936,11.676,3.19,14.431,2.6.222-.152,5.249-.61,6.742-1.37.153.089,7.239-1.92,8.568-2.458,1.3-.527,1.5-.7,1.65-.7.58-.545,1.459-.64,1.44-.878-1.016.306-2.806,1.437-2.809.878.333-.276.909-.309,1.229-.6a3.781,3.781,0,0,0,.7-.211c3.226-1.337,2.155-.82,2.458-.948.011,0,3.522-1.885,3.652-2.072a2.17,2.17,0,0,0,.948-.316c.218.029.29-.078.457-.175.111-.041.154.022.281-.035a40.4,40.4,0,0,1,4.284-1.545,16.147,16.147,0,0,0-3.3,0c-2.4-.66-8.732,1.174-14.5,2.493-.1.006-.044.167-.175.141a.465.465,0,0,0-.246-.07c-9.2,1.107-22.426-1.886-23.1-2.493-.3-.022-4.255-1.24-4.635-1.44-2.115-.312-10.27-5.069-11.974-7.409-.734-.322-4.774-5.055-4.916-5.2-.055-.055-4.777-6.361-4.986-6.707-.021-.155-.032-.319-.176-.351.086.482.263.917.316,1.4.03.281-.024.589.035.878a11.621,11.621,0,0,1,.386,1.264c.14.023.027-.207.176-.176a10.509,10.509,0,0,1,.6,1.861c.127.025.126.178.14.316.135.159,1.856,3.429,1.966,3.617a24.362,24.362,0,0,0,6.882,8.006c3.258,2.884,13.611,8.216,14.853,8.778,3.692,1.674,2.509.853,3.265,1.334.4-.029.911.226,1.229.211-.192-.218-.762-.058-.878-.351-.217.045-.438-.156-.562-.316.142-.132.922.268.983.351a43.578,43.578,0,0,0,5.056.843c-.069.281-2.6-.18-3.406-.246a11.345,11.345,0,0,0,4.284.492c.108-.026.043.121.176.07,4.333.271,12.513-1.055,14.326-1.58,9.665-2.8-.284.036-2.353-.07-.277-.014-5.44,1.389-5.723.6.207-.182.456-.08.7-.07a20.7,20.7,0,0,0,4.775-.843c.9.34,7.383-1.326,7.83-1.44.081.013.033.154.141.14.34-.078.53-.342.878-.316.1-.05.155-.149.246-.211.085-.014.076.064.175.035.437-.366.99-.4,1.4-.772-.421.028-1.288.86-1.545.386.556-.4,1.34-.58,1.931-.948a3.465,3.465,0,0,1,1.369-.211c.3-.249.736-.364.983-.667-.387.028-1.467.4-3.02.667-.144.025-.289,0-.421.035-.091.024-.183.114-.281.14s-.217.005-.316.035c-.406.123-.907.566-1.229.211.111-.383,1.016-.363,1.3-.527.112-.03.109.055.175.07.063-.168.349-.231.527-.176,1.035-.387,2.481-.492,3.511-.773.228.186.8-.1.983-.281a1.356,1.356,0,0,0,.7-.316c.074.023.156.093.211.035a10.583,10.583,0,0,1,1.545-.421.337.337,0,0,1,.316.457c-.207.109-.589.043-.7.246a6.187,6.187,0,0,0-1.369.421c-.227.311-.739.338-1.089.527-.361.345-.34.1-1.229.6-9.337,5.177-19.258,5.122-20.541,5.513-9.546.074-6.4-.335-6.04.07.016.019.081-.032.07-.035.188.054.348.23.6.175.048.151.359.039.386.211-.346.084-.661-.11-1.018-.176-.172-.032-.371,0-.562-.035-.224-.042-.429-.137-.667-.175-.17-.028-.332-.011-.491-.035-.091-.014-.15-.09-.246-.105-.628-.1-3.071-.328-2.88-.808.01,0,2.589.559,2.6.562-.283-.319-3.361-.52-6.953-2.388-.213-.235-12.959-6.472-16.96-10.991-3.331-3.763-3.075-4.045-3.617-4.916a6.7,6.7,0,0,1-1.018-1.826c-.361-.318-.444-.914-.808-1.229,1.2,3.711.851,2.714,1.194,2.739.474.963,1.233,1.676,1.264,2-1.022-.673-2.562-3.979.105,2.563.461.206.631.7.808,1.194a8.521,8.521,0,0,1,.632.808c2.211,2.3,4.109,3.087,4,3.546,1.029,1.03,2.478,1.938,5.618,3.933-.16-.036-.1-.262,0-.316.681.633,6.373,3.436,6.391,3.476a2.765,2.765,0,0,1-1.159-.456,1.156,1.156,0,0,1-.737-.386c-.168-.007-.308-.043-.351-.176-1.175-.42-1.711-.9-2-.843a.316.316,0,0,1-.141-.141,8.8,8.8,0,0,1-1.756-.913c-.061.14-.138.047-.246.14A18.408,18.408,0,0,0,420.968,837.815Zm39.468-17.732c.122.013.311,0,.211-.105A.656.656,0,0,0,460.436,820.082Zm0-.281a1.862,1.862,0,0,0,.246.176,2.319,2.319,0,0,1,1.264-.422.8.8,0,0,0,.351-1.018c-.309-.307-.439-.863-.7-1.159-2.116-2.375-5.133-.6-5.864-.562.071.21.36.2.457.386a6.186,6.186,0,0,1,1.791-.421c.065.063-.029.089,0,.211-.893.325-2.036.216-1.124.737.166-.155,1.263-.639,1.475-.281-1.072.414-1.5.337-1.089.737.334.322.39.075.843-.035.424-.1.864-.214.983.105-.322.15-1.127.075-1.4.456.125.133.2.311.316.457a2.35,2.35,0,0,1,.808-.316c.191-.067.534-.257.737-.035-.044.167-.226.2-.457.176-.213.208-.7.143-.772.492h-.176a.317.317,0,0,0,.211.281,2.339,2.339,0,0,1,1.088-.386c.284-.068.539-.211.632.105-.507.116-1.3.171-1.44.632-.109.09-.261-.022-.351.035.047.188-.15.316-.035.456A8.006,8.006,0,0,1,460.436,819.8ZM447.2,826.789c-.073-.009-.009-.154-.07-.176.239-.224.668-1.447.913-1.685.065-.487.431-.587.457-.421-1.365,3.02-1.321,2.092-.386,2.037.31-.483.908-2.09,1.159-1.65-.132.348-.4.556-.457.983a1.043,1.043,0,0,0-.316.632,3.276,3.276,0,0,1,1.44.211c-.012-.107.491-.742.808-1.369.122-.1,2.455-3.1,2.844-2.528a11.15,11.15,0,0,0-3.371,3.968,1.4,1.4,0,0,0,.527.316,22.55,22.55,0,0,1,2.388-3.09c.267-.284.5-.847.983-.667a18.91,18.91,0,0,0-3.16,3.968c.364.444.532.05.773-.281a22.412,22.412,0,0,1,2.914-3.581c-.025-.13.06-.151.035-.281.714-.62,1.455-2,2.353-1.931-.1.234-.383.25-.562.386a6.937,6.937,0,0,0-.737.808c.588-.3.988-.791,1.545-1.124a4.748,4.748,0,0,0,.527-1.159c-.134-.381-.217-.813-.562-.983.114-.23-.213-.294-.211-.527-1.3-.9-1.589-2.328-4.073-.808-1.614.142-7.833,6.731-7.058,7.936.185-.026.227-.195.421-.211.2-.531,1.089-2.845,1.615-2.634a12.219,12.219,0,0,1-.737,1.159c-.1.214-.1.48-.316.632-.016.3-.182.45-.211.737.1.049.178-.1.211,0-.093.133-.238.038-.316.14-.091.205-.206.42-.07.6-.1.064-.106.221-.316.175a.238.238,0,0,0,.246.246,7.5,7.5,0,0,1,.878-1.651c.162-.248.246-.658.421-.772.857-.57-.743,1.534-1.018,2.458A2.458,2.458,0,0,1,447.2,826.789Zm-19.067-6.707c.08-.274-.811-3.491-5.021-1.685-.257.11-1.3.807-1.229,1.194-.236.209-.558.332-.632.7-.379-.02-.767.849-.843,1.229a1.072,1.072,0,0,0,.492.351c.227-.768.7-1.288.983-2,.346-.2.5-.6.737-.913.259,0,.377-.471.632-.246-.027.2-.229.243-.351.351a7.579,7.579,0,0,0-1.756,2.95,1.777,1.777,0,0,0,.386.316.81.81,0,0,0,.14-.456l2-3.02c.132-.119.321-.284.492-.07-1.132,1.231.992-1.5-1.65,2a16.392,16.392,0,0,0-.737,1.685c.108.091.185.213.351.246.3-.786,1.771-3.551,2.458-3.406a10.434,10.434,0,0,0-2.072,3.3c-.1.04-.079.2-.176.246a.936.936,0,0,0,.527.421c.021-.372,1.58-3.857,2.247-3.476-1.142,1.148-2.38,3.74-1.826,3.863,1.109-2.453,2.337-3.73,2.423-3.371-.079.234-.308.325-.456.492-.034.038-.03.126-.07.175a9.7,9.7,0,0,0-1.65,2.915c.185.072.79.777.7-.07.219-.606,1.352-3.26,2.177-3.336-1.435,1.771-1.28,2.232-1.51,2.282.007.5-.582.888-.386,1.58-.041.053-.146.041-.14.14.108.067.176.175.351.176a12.427,12.427,0,0,1,1.088-2.353c.1-.529.5-.762.667-1.229.2-.14.305-.374.632-.386a.9.9,0,0,1-.386.422,16.821,16.821,0,0,0-1.053,1.966c-.178.091-.123.415-.316.492-.056.484-.457.805-.386,1.3.2-.048.237-.255.281-.456a7.462,7.462,0,0,0,1.053-1.65c.654-.528.914-1.451,1.685-1.861A4.465,4.465,0,0,1,428.131,820.082Zm-19.348-.983c-.091-.026.026-.26-.105-.246C408.668,818.96,408.727,819.176,408.784,819.1Zm55.479,3.863c.26-.027.272-.083.527-.105a1.537,1.537,0,0,0,.281-.562c-.292-1.061-.5-1.191-.843-1.475-.919-.753-1.57-1.162-2.95-.421a2.424,2.424,0,0,0,.632.562,1.376,1.376,0,0,1,.878-.141c-.049.279-.427.229-.667.316,0,.194.221.454.351.632.266-.173,1.2-.42,1.229,0-.447.022-.855.081-.948.456a2.665,2.665,0,0,1,.246,1.51.441.441,0,0,1,.246-.14c0-.172-.244-.107-.175-.351.116-.184.285-.1.491-.176C463.641,822.747,464.06,822.745,464.263,822.962Zm-32.691,3.617a17.141,17.141,0,0,1,1.37-1.931,5.562,5.562,0,0,0,.843-.983c.091-.038.13-.127.246-.14a1.7,1.7,0,0,0,.035-.316c.041-.08.092,0,.105-.105.161-1.182-.486-1.608-.772-2.107-.1.029-.091-.05-.176-.035-.589-.857-2.877-1.287-4.53.07-.067.066-.064-.021-.176,0a7.972,7.972,0,0,0-2.739,4.354c.806.606.611.527.808.527.083.062.59.513.281-.211.083-.167,1.027-2.657,2.247-3.371a.415.415,0,0,1,.457-.351c0,.022-2.27,2.465-2.353,3.687-.084-.014.019.16-.105.105.033.119.047.257.07.386-.062.031-.1.111-.176.035.064.159.26.185.351.316a.772.772,0,0,0,.07-.351c.079-.069,1.3-2.872,1.756-3.02.037-.166.561-.809.737-.6-.307.512-.808.831-1.018,1.44a.983.983,0,0,0-.386.667,5.027,5.027,0,0,0-.843,1.791c.176.058.125.185.105.386.179.032.22.2.421.211a4.056,4.056,0,0,1,.456-1.685.645.645,0,0,0,.316-.527c.436-.383,1.067-1.945,1.51-1.721-.34.718-1.783,2.026-2,3.792.683.417-.834.039,1.053.983-.017-.283,1.553-4.25,2.036-3.757a12.064,12.064,0,0,0-1.72,3.546c-.049.276.206.132-.07.351.319.291.74.062,1.088.316C430.89,828.251,431.6,826.708,431.572,826.578Zm25.7,2.563c.622-.63.941-1.564,1.72-2.037.933-1.511,3.7-2.5,3.582-3.933-.061-.737-1.2-2.448-2.282-2.493-1.165-1.148-8.4,6.476-8.392,7.058a.836.836,0,0,0,.491.6c.139-.54.6-.762.808-1.229.363-.185,1.448-2.167,1.826-1.65a14.363,14.363,0,0,0-2.458,3.055v.211c-.086.005-.091.111-.14.175s-.183.1-.105.176a5.13,5.13,0,0,0,.878-.457c-.363-.523.738-1.075,1.756-2.528.053.076.176.082.176.211a3.426,3.426,0,0,1-.632.737c-.071.081-.1.2-.176.281-.027.03-.11.008-.14.035s-.043.112-.07.14c-1.5,1.54-.125.623,1.264.737-.077-.413-.267-.234.527-1.088.237-.255.369-.563.667-.421-.186.552-.825.65-.913,1.3-.072.068-.171.11-.176.246.316,0,.556.324.421-.211.176-.237.741-1.048.983-.843-.228.463-.645.737-.772,1.3C456.953,828.978,457.294,829.716,457.275,829.142Zm-17.17-4.916a.332.332,0,0,1-.176-.316l-.808-.737c-.358.028-2.6-1.758-5.021.948-.647.723-2.217,2.153-1.615,2.95a10.684,10.684,0,0,1,1.545-2.353c.082-.086.092-.252.246-.211-.072-.229.264-.405.421-.246-.247.347-.543.651-.808.983a13.714,13.714,0,0,0-1.4,2.563c-.294.281-.255.68-.422,1.088a1.327,1.327,0,0,0,.7.176,10.245,10.245,0,0,1,2-3.863c.462-.172-.035.321-.632,1.369-.08.14-.16.34-.316.422-.241.892-1.361,2.332-.316,2.352a13.165,13.165,0,0,1,1.44-3.02c.037-.059.538-1.126.7-.7,0,.01-1.487,2.6-1.545,2.739-.021.05.015.124,0,.176-.034.119-.132-.162-.246.913.192.054.376.116.562.176.107-.491,1.173-3.447,1.65-3.336.029.442-.439.683-.492,1.159a2.085,2.085,0,0,0-.386.878c-.269.175-.175.715-.421.913.036.214-.031.212-.035.386.393.3,1.087.294,1.545.527.352-1.538,1.6-4.669,2.107-4.249a13.763,13.763,0,0,0-1.861,4.319c.292.106.608.188.913.281C439.046,826.67,440.439,825.231,440.105,824.226Zm25.387-.456c.019.2,0,.332.211.386.16-.422.313-.145.562-.316.031.074.107.1.105.211-.15-.008-.143.117-.281.035,0,.2-.218.181-.211.386.34.246.4.771.878.878.264-.4-.036-.872-.035-1.159-.305-.152.055-.205-1.3-1.475-.407.647-.469.414-.667.457-.137.029-.3.142-.421.175s-.276-.01-.351.105a6.077,6.077,0,0,1,1.018.176c.207-.041.491-.332.7-.141.006.153-.078.217-.07.281C465.609,823.664,465.557,823.8,465.492,823.769Zm-43.892-.7,1.264.878,39.608,6.391c-.166-.122.006-.319.105-.386.3-.352.5-.672.808-1.018.234-.268.508-.521.7-.773.657-.17.216.271,0,.351-.191.453-.63.657-.843,1.089-.158.089-.394.284-.351.456a6.372,6.372,0,0,1,1.44-1.3c.313-.553,1.027-.706,1.3-1.3.225-.045.277-.2.351-.316.239-.368.341-.238.316-1.3a8.466,8.466,0,0,0-.808-1.018,1.946,1.946,0,0,0-1.018-.878c-.27.07-.463-.082-.808-.035a9.6,9.6,0,0,1-1.72,1.4c-.423.01-1.559,1.56-2.6,2.177a7.5,7.5,0,0,0-1.159,1.475h-.105c-.11.369-.42.607-.386,1.018.2-.089.132-.363.351-.492v-.211c.085-.106.309-.147.386,0,.015.235-.161.462-.035.527.184.028-.019-.052,0-.105.034-.094.272-.218.246-.421.284-.278.452-.672.807-.878a11.149,11.149,0,0,1,2.036-2.107c.016-.018.087.016.106,0,.12-.1.183-.333.386-.316.071-.168.364-.392.527-.246-.294.5-.913.679-1.264,1.124-.066-.008-.078.04-.141.035a7.271,7.271,0,0,1-.948.948c-.068.087-.072.2-.141.281-.125.148-.329.243-.457.386-.023.027-.018.115-.035.141a5.067,5.067,0,0,1-.457.527c-.018.217-.211.258-.211.492.141.068.341-.07.562-.035.09-.559,1.969-2.772,2.458-2.493a.434.434,0,0,1-.421.316,8.52,8.52,0,0,1-.983.983v.141c-.239.078-.281.305-.421.492-.107.142-.295.234-.246.386.386.326.606-.323.808-.6.057-.077.184-.061.14-.176.386-.16.7-.7.843-.808.041-.029.105-.008.14-.035s.017-.093.07-.105c.785-.18-.522.684-1.054,1.51a.426.426,0,0,0-.281.316c.158.064.4.049.527.141-.076-.13.072-.066.105-.105.052-.06.29-.486.351-.562.082-.1.227-.144.316-.246.113-.129.324-.623.667-.737.046.071.186.048.211.141a7.038,7.038,0,0,0-1.369,1.72,3.317,3.317,0,0,1,.737.316,3.027,3.027,0,0,1,.211.6,2.282,2.282,0,0,0,.351-.422c.069-.112.238-.161.175-.281C462.654,830.189,462.62,830.32,462.472,830.336ZM423.18,824.12c-.082-.014-.148-.223-.246-.105C422.99,824.056,423.126,824.2,423.18,824.12Zm22.086,5.864c-.028-.2.165-.282.246-.421a5.175,5.175,0,0,0,.527-1.966,5.78,5.78,0,0,0-.878-1.615,2.976,2.976,0,0,0-1.861-.948c-1.452-.256-2.508.883-3.476,2.107A6.849,6.849,0,0,0,438,830.651c.157.023.227.055.316.07-.006-.416.221-.6.281-.948.274-.264.3-.772.632-.983.072-.451.837-1.836,1.334-1.756a.731.731,0,0,1-.316.316c-.747,1.433-1.561,2.459-1.685,3.371.091.178.365.173.562.246.014-.2-.568-.091,1.053-2.563.1-.158.169-.44.421-.421-.2.72-1.372,2.053-1.194,2.774-.041.088-.14.118-.141.246.191,0,.273.1.457.105.189-.342.245-.865.456-1.3.043-.089.159-.154.211-.246.1-.171.32-1.108.843-1.018a3.4,3.4,0,0,0-.667,1.264c-.146-.017-.055.2-.176.211-.059.509-.75,1.321.141,1.3.128-.445.322-.826.421-1.3.045,0,.049-.045.105-.035-.027-.132.043-.168.035-.281.224-.22.224-.7.6-.6a11.439,11.439,0,0,0-.878,2.317.878.878,0,0,0,.527.105c-.019-.236.136-.368.176-.492.031-.1.005-.219.035-.316.054-.175.219-.353.281-.527.118-.332.227-.785.632-.7a6.518,6.518,0,0,0-.843,2.142c.155.084.289.032.491.105.278-.658.545-1.328.843-1.966.118.022.256-.115.316-.035a11.889,11.889,0,0,0-.843,2.036c.193-.029.24.088.421.07.218-.583,1.359-3.486,2.037-3.441a16.265,16.265,0,0,0-1.756,3.476c.645.051.173.5.948-1.124a2.15,2.15,0,0,1,.7-1.053c.032.062.129.058.14.141a5.87,5.87,0,0,0-.772,1.51C443.823,832.16,444.87,829.979,445.267,829.984Zm.737-4.178a.688.688,0,0,0,.14.491,1.391,1.391,0,0,1,.14-.6C446.16,825.7,446.157,825.83,446,825.806Zm20.857.808c.1-.08.315.058.386-.105-.145-.159-.2-.405-.492-.421C466.821,826.282,466.758,826.457,466.861,826.614Zm-.246.457c.11.011.188-.163.07-.176C466.671,826.961,466.585,826.958,466.615,827.07Zm-15.731,3.581a2.78,2.78,0,0,0,.456-.6,2.282,2.282,0,0,0-.808-2.563,4.819,4.819,0,0,0-1.615-.562c-2.559-.02-2.436,1.659-2.914,2.6-.913,1.792,1.056-1.879,1.475-1.018-.541.2-.611.737-1.194,1.159-.221.423-.533.78-.772,1.194-.121.209-.2.446-.316.667s-.322.425-.316.7c.111-.017.124.063.246.035a.416.416,0,0,0,.14-.316c.1-.026.068-.19.211-.176a1.3,1.3,0,0,1,.386-.632c.171-.484.52-.791.7-1.264.192-.078.336-.537.6-.316-.074.286-.333.441-.492.667s-.286.5-.456.737c-.052.006-.032.085-.035.14-.146.176-.8,1.071-.737,1.264.64.137.339.174,1.123-1.089,1.3-2.085,1.212-.963.632-.6-.271.665-.792,1.081-.983,1.826.27-.024.4.095.667.07.1-.132.078-.39.246-.457.051-.405.32-.593.421-.948.189-.079.317-.584.562-.281a4.953,4.953,0,0,0-.913,1.721c1.038.213.5.124,1.229-1.018.086-.135.137-.35.316-.316.067.259-.111.407-.246.562-.012.235-.22.576-.281.878a2.932,2.932,0,0,0,.738.07,14.44,14.44,0,0,1,.7-1.72c.159.066.048-.14.175-.105.029-.144.319-.757.527-.527a9.892,9.892,0,0,0-1.124,2.388,2.858,2.858,0,0,0,.913,0A17.874,17.874,0,0,1,450.885,830.651Zm-18.575-3.2c-.018-.1.175-.173.07-.246C432.355,827.27,432.194,827.372,432.31,827.456Zm-.456,1.053a9.759,9.759,0,0,0,.351-.948C431.836,827.562,431.767,828.344,431.853,828.51Zm34.341-.667c-.945,1.239-2.566,1.533-3.371,3.16-.4.07-.771,1.046-.562,1.159.927-1.5,1.264-1.37,1.229-1.615.134.035.12-.119.176-.176.144-.148.344-.242.456-.421.241-.07.4-.5.7-.281.049.575-.275.428-.6.667a9.808,9.808,0,0,0-1.51,1.756c.142,0,.271-.01.316-.105-.043,0-.083-.01-.07-.07.477-.232.915-1.191,1.51-1.3-.055.125.119.021.1.105-.252.415-.652.682-.913,1.089.172.076.351-.044.527-.07-.234-.06.01-.288.211-.386.135-.067.288-.053.421-.105.35-.137,1.306-1.026,1.615-1.194a1.187,1.187,0,0,1,.246-.421c.025-.107-.061-.1-.035-.211.246-.077.137-.259.175-.491.012-.069.066-.127.07-.176,0-.019-.077-.1-.07-.141s.079-.029.07-.105C466.829,827.894,466.093,827.273,466.194,827.842Zm-34.622.983c.093,0,.2.013.246-.035-.02-.114.024-.163.035-.246C431.69,828.569,431.7,828.769,431.572,828.826Zm25,2.985c.045-.075.06-.178.105-.246.023-.035.114-.036.14-.07s-.01-.081,0-.105c.088-.22.7-.32.035-1.51-.054-.1-.076-.208-.105-.246s-.118-.012-.14-.035c-.058-.06-.067-.176-.141-.246a3.03,3.03,0,0,0-3.546-.105c-.048.028-.06.109-.105.14a5,5,0,0,1-.527.281,7.677,7.677,0,0,0-1.4,2.633c.343.02.115.611.421.667.1-.381.315-.645.421-1.018.163-.072.149-.194.211-.316.165-.327.372-.633.492-.948.156-.137.361-.411.562-.386.025.224-.151.247-.246.351A23.541,23.541,0,0,0,451.552,833h.737c.237-.893,1.112-2.473,1.334-2.036a8.425,8.425,0,0,0-1.089,1.966,5.282,5.282,0,0,0,.7.105c-.024-.235.229-.3.141-.492.254-.4.36-.951.632-1.334h.21a18.7,18.7,0,0,0-.667,1.791,1.89,1.89,0,0,0,.562.105c.067-.531.387-.691.386-1.159.153-.093.139-.353.351-.386.016.544-.367.989-.456,1.545.629-.031.494.055.808-.843.055-.015.03-.11.14-.07.014-.085-.064-.076-.035-.176.438-.536.461-.939.772-.983.127.349-.766,1.045-.843,2.037a3.493,3.493,0,0,0,.913.105A3.144,3.144,0,0,1,456.573,831.81Zm10.745-2.528c.169-.1.474.027.562,0a.505.505,0,0,0-.14-.386C467.531,828.957,467.245,828.94,467.318,829.282Zm.456.211h.141C467.888,829.371,467.932,829.182,467.774,829.493Zm-.351.141c.087-.065.242-.062.316-.141C467.668,829.429,467.316,829.523,467.423,829.633Zm.246.211c.125.008.21-.024.246-.105C467.825,829.766,467.716,829.774,467.669,829.844ZM461.84,831a2.353,2.353,0,0,0-2.809-.773c-1.27.357-1.459,1.795-2,2.879a.575.575,0,0,0,.6.035c.01-.127-.139-.1-.14-.211.285-.405.343-1.038.737-1.334a1.382,1.382,0,0,1,.562-.808c.154.44-.923,1.149-.878,2.353.291.026.25-.288.316-.456.1-.257.335-.515.351-.808a1.092,1.092,0,0,0,.351-.491c.142,0,.278-.144.386-.07-.079.2-.272.339-.386.526s-.126.464-.351.562c.061.213-.161.384-.14.667.2,0,.639-.022.737-.176.048-.838.721-1.574.843-1.229-.092.138-.585.764-.527,1.089a.263.263,0,0,0,.386.176c.212-.356.361-1.058.808-1.053-.036.234-.177.361-.246.562-.024.141.148.086.14.211-.133-.13-.252-.017-.281.141.359-.041.843-.256,1.3-.316C461.677,832.045,462.011,831.493,461.84,831Zm-25.738-.351a4.523,4.523,0,0,0,1.159.351c-.178-.191-.481-.173-.737-.246-.181-.051-.326-.181-.527-.14-.046-.05-.221-.15-.281-.07C435.771,830.655,435.984,830.606,436.1,830.651Zm30.022.246c0,.083-.122.315.246.035A.191.191,0,0,1,466.124,830.9Zm-27.845.316a.711.711,0,0,0-.562-.07C437.836,831.321,438.035,831.234,438.279,831.213Zm-14.186,9.27c-.045-.142-.211-.163-.351-.211C423.784,840.418,423.962,840.427,424.093,840.483Zm15.7,3.231c-.037-.037-.251-.073-.281,0C439.631,843.664,439.733,843.812,439.789,843.714Z" transform="translate(-398.144 -800.867)" fill-rule="evenodd"/>
      <path id="Tracé_241" data-name="Tracé 241" d="M679.849,1113.394c.26-.051.629,1.012,1.018,1.44.023.3.284.371.351.632.014.068.136.028.105.14.193-.029.235.093.281.211-.175.146-.3-.012-.457-.07-.008-.133-.11-.171-.141-.281-.5-.534-.734-1.326-1.194-1.9C679.9,1113.524,679.781,1113.4,679.849,1113.394Z" transform="translate(-654.11 -1084.873)" fill-rule="evenodd"/>
      <path id="Tracé_242" data-name="Tracé 242" d="M656.616,925.743c.215-.078.308-.277.527-.351.125-.055.021.119.105.105.14-.176.162-.471.457-.492a.666.666,0,0,1-.246.632c-.074.227-.348,1-.632,1.018a.1.1,0,0,0-.07-.105c.117-.328.275-.614.386-.948-.332.124-.448.464-.737.632-.53.06.183-1.192.7-1.756C657.747,924.482,656.968,924.827,656.616,925.743Z" transform="translate(-632.668 -913.199)" fill-rule="evenodd"/>
      <path id="Tracé_243" data-name="Tracé 243" d="M1004.007,1245.777c1.167,0-9.347,3.133-9.832,2.879-.026-.287.479-.284.562-.246a8.171,8.171,0,0,1,1.826-.386C996.685,1247.815,1003.91,1245.777,1004.007,1245.777Z" transform="translate(-939.784 -1205.177)" fill-rule="evenodd"/>
    </g>
  </g>
</svg>
